<svg xmlns="http://www.w3.org/2000/svg" viewBox="0 0 500 500"><g id="freepik--background-complete--inject-22"><rect y="382.4" width="500" height="0.25" style="fill:#ebebeb"></rect><rect x="416.78" y="398.49" width="33.12" height="0.25" style="fill:#ebebeb"></rect><rect x="322.53" y="401.21" width="8.69" height="0.25" style="fill:#ebebeb"></rect><rect x="396.59" y="389.21" width="19.19" height="0.25" style="fill:#ebebeb"></rect><rect x="52.46" y="390.89" width="43.19" height="0.25" style="fill:#ebebeb"></rect><rect x="104.56" y="390.89" width="6.33" height="0.25" style="fill:#ebebeb"></rect><rect x="131.47" y="395.11" width="93.68" height="0.25" style="fill:#ebebeb"></rect><path d="M237,337.8H43.91a5.71,5.71,0,0,1-5.7-5.71V60.66A5.71,5.71,0,0,1,43.91,55H237a5.71,5.71,0,0,1,5.71,5.71V332.09A5.71,5.71,0,0,1,237,337.8ZM43.91,55.2a5.46,5.46,0,0,0-5.45,5.46V332.09a5.46,5.46,0,0,0,5.45,5.46H237a5.47,5.47,0,0,0,5.46-5.46V60.66A5.47,5.47,0,0,0,237,55.2Z" style="fill:#ebebeb"></path><path d="M453.31,337.8H260.21a5.72,5.72,0,0,1-5.71-5.71V60.66A5.72,5.72,0,0,1,260.21,55h193.1A5.71,5.71,0,0,1,459,60.66V332.09A5.71,5.71,0,0,1,453.31,337.8ZM260.21,55.2a5.47,5.47,0,0,0-5.46,5.46V332.09a5.47,5.47,0,0,0,5.46,5.46h193.1a5.47,5.47,0,0,0,5.46-5.46V60.66a5.47,5.47,0,0,0-5.46-5.46Z" style="fill:#ebebeb"></path><circle cx="140.46" cy="131.87" r="41.55" style="fill:#f5f5f5"></circle><path d="M66.31,123.68a6.77,6.77,0,0,1,6.76-6.77,6.62,6.62,0,0,1,2,.29A14.3,14.3,0,0,1,91.83,101a12.53,12.53,0,0,1,23.23,6.33h.21a11.55,11.55,0,0,1,0,23.09H72.88A6.77,6.77,0,0,1,66.31,123.68Z" style="fill:#ebebeb"></path><path d="M156.64,166.93a6.77,6.77,0,0,1,6.77-6.77,6.84,6.84,0,0,1,1.94.29,15.79,15.79,0,0,1-.15-2.08,14.31,14.31,0,0,1,17-14.08,12.53,12.53,0,0,1,23.23,6.33h.21a11.55,11.55,0,0,1,0,23.09H163.22A6.77,6.77,0,0,1,156.64,166.93Z" style="fill:#ebebeb"></path><path d="M42.4,343.56a12.5,12.5,0,0,1,16.1-12,27.12,27.12,0,0,1-.28-3.84,26.47,26.47,0,0,1,31.38-26,23.15,23.15,0,0,1,42.93,11.7h.39a21.34,21.34,0,0,1,0,42.68H54.54l0,0A12.51,12.51,0,0,1,42.4,343.56Z" style="fill:#ebebeb"></path><path d="M265.6,388.48A20.36,20.36,0,0,1,291.85,369a43.14,43.14,0,0,1,50.68-48.7,37.74,37.74,0,0,1,70,19.08c.21,0,.42,0,.63,0a34.79,34.79,0,0,1,0,69.57H285.39l0,0A20.38,20.38,0,0,1,265.6,388.48Z" style="fill:#ebebeb"></path><path d="M381.81,197a6.77,6.77,0,0,1,6.77-6.77,6.6,6.6,0,0,1,1.94.29,14.34,14.34,0,0,1,14.18-16.41,15.34,15.34,0,0,1,2.64.24,12.52,12.52,0,0,1,23.22,6.34h.21a11.54,11.54,0,1,1,0,23.08H388.39A6.76,6.76,0,0,1,381.81,197Z" style="fill:#ebebeb"></path><path d="M199,251.59a6.77,6.77,0,0,1,6.76-6.77,7,7,0,0,1,2,.28,14.11,14.11,0,0,1-.15-2.07,14.36,14.36,0,0,1,17-14.09,12.52,12.52,0,0,1,23.22,6.34l.21,0a11.55,11.55,0,0,1,0,23.09H205.57A6.76,6.76,0,0,1,199,251.59Z" style="fill:#ebebeb"></path><path d="M70.22,206a4.09,4.09,0,0,1,5.26-3.92,8.67,8.67,0,0,1,8.57-9.92,8.43,8.43,0,0,1,1.6.15,7.56,7.56,0,0,1,14,3.83h.13a7,7,0,0,1,0,14H74.19A4.08,4.08,0,0,1,70.22,206Z" style="fill:#ebebeb"></path><path d="M284.49,135.28a4.09,4.09,0,0,1,4.09-4.09,4.16,4.16,0,0,1,1.18.17,8.67,8.67,0,0,1,8.57-9.92,9.22,9.22,0,0,1,1.59.15,7.57,7.57,0,0,1,14,3.83h.13a7,7,0,1,1,0,14H288.47A4.08,4.08,0,0,1,284.49,135.28Z" style="fill:#ebebeb"></path><path d="M407.83,107.77a4.09,4.09,0,0,1,4.09-4.09,4.21,4.21,0,0,1,1.18.17,8.67,8.67,0,0,1,8.57-9.92,8.4,8.4,0,0,1,1.59.15,7.57,7.57,0,0,1,14,3.83h.13a7,7,0,0,1,0,14H411.81A4.08,4.08,0,0,1,407.83,107.77Z" style="fill:#ebebeb"></path></g><g id="freepik--Shadow--inject-22"><ellipse id="freepik--path--inject-22" cx="250" cy="416.24" rx="193.89" ry="11.32" style="fill:#f5f5f5"></ellipse></g><g id="freepik--Stars--inject-22"><polygon points="263.23 107.64 443.65 107.64 281.03 112.04 364.29 113.37 267.1 119.09 263.23 107.64" style="fill:#6DB5D6"></polygon><polygon points="263.23 107.64 443.65 107.64 281.03 112.04 364.29 113.37 267.1 119.09 263.23 107.64" style="fill:#fff;opacity:0.8"></polygon><path d="M270.74,121.8l-6.38-1a1.47,1.47,0,0,0-1.3.44l-4.47,4.66a1.47,1.47,0,0,1-2.52-.8l-1-6.38a1.48,1.48,0,0,0-.82-1.1l-5.82-2.81a1.48,1.48,0,0,1,0-2.65l5.77-2.9a1.47,1.47,0,0,0,.79-1.12l.88-6.4a1.48,1.48,0,0,1,2.51-.84l4.54,4.58a1.5,1.5,0,0,0,1.31.42l6.36-1.15a1.48,1.48,0,0,1,1.57,2.13l-3,5.74a1.47,1.47,0,0,0,0,1.37l3,5.69A1.48,1.48,0,0,1,270.74,121.8Z" style="fill:#6DB5D6"></path><path d="M270.74,121.8l-6.38-1a1.47,1.47,0,0,0-1.3.44l-4.47,4.66a1.47,1.47,0,0,1-2.52-.8l-1-6.38a1.48,1.48,0,0,0-.82-1.1l-5.82-2.81a1.48,1.48,0,0,1,0-2.65l5.77-2.9a1.47,1.47,0,0,0,.79-1.12l.88-6.4a1.48,1.48,0,0,1,2.51-.84l4.54,4.58a1.5,1.5,0,0,0,1.31.42l6.36-1.15a1.48,1.48,0,0,1,1.57,2.13l-3,5.74a1.47,1.47,0,0,0,0,1.37l3,5.69A1.48,1.48,0,0,1,270.74,121.8Z" style="fill:#fff;opacity:0.4"></path><polygon points="337.37 344.51 447.06 344.51 348.2 347.18 398.81 347.99 339.73 351.47 337.37 344.51" style="fill:#6DB5D6"></polygon><polygon points="337.37 344.51 447.06 344.51 348.2 347.18 398.81 347.99 339.73 351.47 337.37 344.51" style="fill:#fff;opacity:0.8"></polygon><path d="M341.94,353.12l-3.88-.63a.9.9,0,0,0-.79.26l-2.71,2.83a.9.9,0,0,1-1.54-.48l-.6-3.88a.9.9,0,0,0-.49-.67l-3.54-1.71a.9.9,0,0,1,0-1.61l3.5-1.76a.91.91,0,0,0,.49-.68l.53-3.89a.9.9,0,0,1,1.53-.51l2.76,2.78a.92.92,0,0,0,.8.26l3.86-.7a.9.9,0,0,1,1,1.29l-1.8,3.49a.89.89,0,0,0,0,.84l1.85,3.46A.9.9,0,0,1,341.94,353.12Z" style="fill:#6DB5D6"></path><path d="M341.94,353.12l-3.88-.63a.9.9,0,0,0-.79.26l-2.71,2.83a.9.9,0,0,1-1.54-.48l-.6-3.88a.9.9,0,0,0-.49-.67l-3.54-1.71a.9.9,0,0,1,0-1.61l3.5-1.76a.91.91,0,0,0,.49-.68l.53-3.89a.9.9,0,0,1,1.53-.51l2.76,2.78a.92.92,0,0,0,.8.26l3.86-.7a.9.9,0,0,1,1,1.29l-1.8,3.49a.89.89,0,0,0,0,.84l1.85,3.46A.9.9,0,0,1,341.94,353.12Z" style="fill:#fff;opacity:0.4"></path><polygon points="120.15 69.93 229.84 69.93 130.97 72.6 181.59 73.41 122.51 76.89 120.15 69.93" style="fill:#6DB5D6"></polygon><polygon points="120.15 69.93 229.84 69.93 130.97 72.6 181.59 73.41 122.51 76.89 120.15 69.93" style="fill:#fff;opacity:0.8"></polygon><path d="M124.72,78.54l-3.88-.63a.89.89,0,0,0-.79.26L117.33,81a.9.9,0,0,1-1.53-.49l-.6-3.88a.9.9,0,0,0-.49-.67l-3.54-1.71a.9.9,0,0,1,0-1.61l3.5-1.76a.91.91,0,0,0,.49-.68l.53-3.89a.89.89,0,0,1,1.52-.51L120,68.59a.9.9,0,0,0,.79.26l3.87-.7a.89.89,0,0,1,1,1.29l-1.79,3.49a.89.89,0,0,0,0,.84l1.86,3.46A.9.9,0,0,1,124.72,78.54Z" style="fill:#6DB5D6"></path><path d="M124.72,78.54l-3.88-.63a.89.89,0,0,0-.79.26L117.33,81a.9.9,0,0,1-1.53-.49l-.6-3.88a.9.9,0,0,0-.49-.67l-3.54-1.71a.9.9,0,0,1,0-1.61l3.5-1.76a.91.91,0,0,0,.49-.68l.53-3.89a.89.89,0,0,1,1.52-.51L120,68.59a.9.9,0,0,0,.79.26l3.87-.7a.89.89,0,0,1,1,1.29l-1.79,3.49a.89.89,0,0,0,0,.84l1.86,3.46A.9.9,0,0,1,124.72,78.54Z" style="fill:#fff;opacity:0.4"></path></g><g id="freepik--Birds--inject-22"><path d="M118.34,378.19s-.59-8.6,1.19-10.62,15.29-9.43,15.29-9.43,1,1.72-1.48,3.3l2.93-.59s.6,1.78-2.24,3.16c0,0,2.51.66.73,4.88S118.34,378.19,118.34,378.19Z" style="fill:#6DB5D6"></path><path d="M118.34,378.19s-.59-8.6,1.19-10.62,15.29-9.43,15.29-9.43,1,1.72-1.48,3.3l2.93-.59s.6,1.78-2.24,3.16c0,0,2.51.66.73,4.88S118.34,378.19,118.34,378.19Z" style="fill:#fff;opacity:0.4;isolation:isolate"></path><path d="M107.65,376c0-4.94,6.21-5,13.46-1.56,3,1.41,8.12-3.88,12.23-6.17,6.43-3.57,17.57-4.12,28.91-5.44,0,0,1.37,1.74-2.48,3l5.15,1.24s.28,2.38-5.15,2.64c0,0,1.5,1.55.25,4.81-2.19,5.74-13.39,6.53-13.39,6.53s5.44,1.29,19-.59A22.92,22.92,0,0,1,151,387.35l-6.4-.79A24.28,24.28,0,0,1,129,388.67c-8.44-1.85-14-7.65-16.35-8.44S107.65,377.57,107.65,376Z" style="fill:#6DB5D6"></path><path d="M165.62,380.43A22.92,22.92,0,0,1,151,387.35l-6.4-.79A24.28,24.28,0,0,1,129,388.67a26.11,26.11,0,0,1-3.35-1c-6.57-2.39-11-6.78-13-7.46-2.37-.79-5-2.66-5-4.24,0-4.94,6.21-5,13.46-1.56,3,1.41,8.12-3.88,12.23-6.17,6.43-3.57,17.57-4.12,28.91-5.44,0,0,1.37,1.74-2.48,3l5.15,1.24s.28,2.38-5.15,2.64c0,0,1.5,1.55.25,4.81-.88,2.3-3.2,3.8-5.67,4.77a29.07,29.07,0,0,1-7.72,1.76S152.07,382.31,165.62,380.43Z" style="fill:#fff;opacity:0.6000000000000001;isolation:isolate"></path><path d="M107.83,374.66a12.16,12.16,0,0,0-3.4,1.33,13.81,13.81,0,0,0,4,1.66l.18-1.49Z" style="fill:#6DB5D6"></path><path d="M110.45,374.51c0,.22-.11.4-.24.4s-.25-.18-.25-.4.11-.41.25-.41S110.45,374.28,110.45,374.51Z" style="fill:#263238"></path><path d="M159.77,369.68s1.5,1.55.25,4.81c-.88,2.3-3.2,3.8-5.67,4.77L146.63,381s-12.27,2.71-18.79-1.58c0,0,6.65-4.42,8.79-7.58s22.46-5.21,25.62-9c0,0,1.37,1.74-2.48,3l5.15,1.24S165.2,369.42,159.77,369.68Z" style="opacity:0.2;isolation:isolate"></path><path d="M165.62,380.43A22.92,22.92,0,0,1,151,387.35l-6.4-.79A24.28,24.28,0,0,1,129,388.67a26.11,26.11,0,0,1-3.35-1,31.46,31.46,0,0,0,11.4-.21,23.11,23.11,0,0,0,10-5S160.75,383.13,165.62,380.43Z" style="opacity:0.2;isolation:isolate"></path><path d="M46.15,248s-.35-5.13.71-6.34S56,236.07,56,236.07s.59,1-.88,2l1.75-.36s.35,1.06-1.34,1.89c0,0,1.49.39.43,2.91S46.15,248,46.15,248Z" style="fill:#6DB5D6"></path><path d="M46.15,248s-.35-5.13.71-6.34S56,236.07,56,236.07s.59,1-.88,2l1.75-.36s.35,1.06-1.34,1.89c0,0,1.49.39.43,2.91S46.15,248,46.15,248Z" style="fill:#fff;opacity:0.4;isolation:isolate"></path><path d="M39.77,246.72c0-2.95,3.71-3,8-.93,1.78.84,4.84-2.32,7.3-3.68,3.83-2.13,10.48-2.46,17.25-3.25,0,0,.81,1-1.48,1.78l3.07.74s.17,1.42-3.07,1.57c0,0,.89.93.15,2.88-1.31,3.42-8,3.89-8,3.89s3.24.77,11.33-.35a13.66,13.66,0,0,1-8.74,4.13L61.82,253a14.53,14.53,0,0,1-9.29,1.26c-5-1.11-8.34-4.57-9.76-5S39.78,247.66,39.77,246.72Z" style="fill:#6DB5D6"></path><path d="M74.37,249.37a13.66,13.66,0,0,1-8.74,4.13L61.81,253a14.51,14.51,0,0,1-9.28,1.26,16.68,16.68,0,0,1-2-.59c-3.92-1.43-6.54-4-7.76-4.45-1.41-.47-3-1.59-3-2.53,0-2.95,3.71-3,8-.93,1.78.84,4.84-2.32,7.3-3.68,3.83-2.13,10.48-2.46,17.25-3.25,0,0,.82,1-1.48,1.78l3.07.74s.17,1.42-3.07,1.57c0,0,.89.93.15,2.87a5.57,5.57,0,0,1-3.39,2.85,17.45,17.45,0,0,1-4.6,1.05S66.28,250.49,74.37,249.37Z" style="fill:#fff;opacity:0.6000000000000001;isolation:isolate"></path><path d="M39.88,245.93a7.17,7.17,0,0,0-2,.79,8.28,8.28,0,0,0,2.41,1l.1-.89Z" style="fill:#6DB5D6"></path><path d="M41.45,245.83c0,.14-.07.25-.15.25s-.15-.11-.15-.25.07-.24.15-.24S41.45,245.7,41.45,245.83Z" style="fill:#263238"></path><path d="M70.88,243s.89.93.15,2.87a5.57,5.57,0,0,1-3.39,2.85L63,249.72s-7.33,1.62-11.22-.94c0,0,4-2.64,5.25-4.53s13.4-3.1,15.29-5.39c0,0,.82,1-1.48,1.78l3.07.74S74.12,242.8,70.88,243Z" style="opacity:0.2;isolation:isolate"></path><path d="M74.37,249.37a13.66,13.66,0,0,1-8.74,4.13L61.81,253a14.51,14.51,0,0,1-9.28,1.26,16.68,16.68,0,0,1-2-.59,18.87,18.87,0,0,0,6.8-.12,13.83,13.83,0,0,0,6-3S71.46,251,74.37,249.37Z" style="opacity:0.2;isolation:isolate"></path></g><g id="freepik--character-1--inject-22"><path d="M52,142.8l-10.41-5.12s-3.79-5-5.6-6.24-6.41,3.1-6.67,4.37,7.6,6.82,7.6,6.82l2.28.09L51,150.13Z" style="fill:#eec1bb"></path><path d="M94.82,152.87s-13.34-.27-19.54-2-30.89-12.45-30.89-12.45l-1.21,7.73s23.14,14.53,28.68,16,24.5,3.63,24.5,3.63Z" style="fill:#263238"></path><path d="M96.36,165.8s-7-.8-13.78-1.76c-4.33-.62-8.55-1.3-10.72-1.87-5.54-1.46-28.68-16-28.68-16l1.21-7.73s24.7,10.75,30.89,12.45,19.54,2,19.54,2l.92,7.76Z" style="fill:#fff;opacity:0.1;isolation:isolate"></path><path d="M96.36,165.8s-7-.8-13.78-1.76c3-1.72,8-4,13.16-3.41Z" style="opacity:0.2;isolation:isolate"></path><polygon points="194.51 149.58 189.4 147.13 185.16 153.84 181.27 160 186.86 163.89 190.91 156.31 194.51 149.58" style="fill:#eec1bb"></polygon><path d="M188.15,146.94c-.26.57,6.87,3.44,6.87,3.44s6.33-2.29,10.93-1.29,3.48-2.58-1.14-4.79l-11.43-5.47C190.1,137.26,190.81,141,188.15,146.94Z" style="fill:#263238"></path><path d="M199.51,150.35a1.06,1.06,0,0,1,.53.46.72.72,0,0,1-.18.81.83.83,0,0,1-.6.3,3.17,3.17,0,0,1-1.63-.58c.42.57.74,1.17.58,1.55s-.34.36-.73.36a1.2,1.2,0,0,1-.91-.4c-.74-.84-.56-2.72-.55-2.82a.11.11,0,0,1,0-.07h0l0,0h0l0,0h0l.07,0A9.7,9.7,0,0,1,199.51,150.35Zm-1.17.92a1.92,1.92,0,0,0,.89.24.44.44,0,0,0,.32-.15c.19-.23.14-.35.12-.38-.19-.43-1.64-.65-2.87-.71A8.67,8.67,0,0,0,198.34,151.27Zm-1.21,1.5a.78.78,0,0,0,.35.07c.12,0,.32,0,.36-.11.13-.32-.6-1.33-1.44-2.21a3.4,3.4,0,0,0,.47,2.06A1,1,0,0,0,197.13,152.77Z" style="fill:#6DB5D6"></path><polygon points="190.99 156.16 185.22 153.7 181.31 159.93 186.88 163.86 190.99 156.16" style="opacity:0.2;isolation:isolate"></polygon><path d="M190.58,158.86s-3.3,6-7.72,13.35a205.27,205.27,0,0,1-12.36,18.62l-.25.32a37.68,37.68,0,0,1-5,5.48c-4.22,3.51-11.21,4-18.18,3-7.2-1.08-14.37-3.79-18.43-6.49a44.64,44.64,0,0,1-9-7.73l5.05-13.75S137.24,175,158,183.41l.53.22,9.74-11.5L182,155.89Z" style="fill:#6DB5D6"></path><polygon points="181.08 156.34 190.91 159.98 191.77 158.15 182.47 154.85 181.08 156.34" style="fill:#6DB5D6"></polygon><path d="M170.25,191.15a37.68,37.68,0,0,1-5,5.48c-4.22,3.51-11.21,4-18.18,3a45.94,45.94,0,0,1-8.94-9.65l-8.5-1.29,8.37-2Z" style="opacity:0.2;isolation:isolate"></path><polygon points="181.08 156.34 190.91 159.98 191.77 158.15 182.47 154.85 181.08 156.34" style="opacity:0.2;isolation:isolate"></polygon><path d="M182.86,172.21a205.27,205.27,0,0,1-12.36,18.62l-13.28-5.9.78-1.52.53.22,9.74-11.5C171.88,172.05,177.24,172,182.86,172.21Z" style="opacity:0.2;isolation:isolate"></path><polygon points="227.85 173.92 225.03 169.02 217.73 172.16 211.04 175.04 213.46 181.41 221.08 177.45 227.85 173.92" style="fill:#eec1bb"></polygon><path d="M224.1,168.15c-.53.32,3.73,6.72,3.73,6.72s6.51,1.69,9.74,5.12,4.33-.16,1.77-4.6-4.52-7.82-6.34-11S229.63,164.78,224.1,168.15Z" style="fill:#263238"></path><path d="M231.55,177.38a1.11,1.11,0,0,1,.18.68.75.75,0,0,1-.62.57.83.83,0,0,1-.65-.09,3.18,3.18,0,0,1-1-1.4c0,.71-.05,1.38-.39,1.61a.71.71,0,0,1-.81-.12,1.19,1.19,0,0,1-.52-.84c-.14-1.12,1.07-2.56,1.14-2.64s0,0,.06-.05h0l.06,0H229a.13.13,0,0,1,.08,0A9.87,9.87,0,0,1,231.55,177.38Zm-1.49.11a2,2,0,0,0,.6.7.42.42,0,0,0,.34.05c.3-.08.32-.2.33-.24.07-.46-1-1.47-2-2.21A9.89,9.89,0,0,0,230.06,177.49Zm-1.85.54a.8.8,0,0,0,.25.27c.1.06.27.17.36.11.29-.19.26-1.44.06-2.64a3.41,3.41,0,0,0-.77,2A.81.81,0,0,0,228.21,178Z" style="fill:#6DB5D6"></path><polygon points="221.23 177.36 217.87 172.08 211.11 175 213.49 181.39 221.23 177.36" style="opacity:0.2;isolation:isolate"></polygon><path d="M124.65,168.8s17.85-6.66,54.28,12.88l35.06-9.6,5.38,7.28s-31.16,15.79-42.26,16.84-38.58-8.53-38.58-8.53L116.47,182Z" style="fill:#6DB5D6"></path><polygon points="212.38 171.63 214.48 171.63 220.44 179.47 218.34 180.69 212.38 171.63" style="fill:#6DB5D6"></polygon><polygon points="212.38 171.63 214.48 171.63 220.44 179.47 218.34 180.69 212.38 171.63" style="opacity:0.2;isolation:isolate"></polygon><path d="M141.73,166.78s-3.31,17.08-16.33,19.69a16.66,16.66,0,0,1-6.26.14,15.3,15.3,0,0,1-9.81-6.44,16,16,0,0,1-1.75-3l18.9-9.57,1.56-.8a50,50,0,0,1,7.42-.95C137.89,165.73,140.32,165.91,141.73,166.78Z" style="fill:#263238"></path><path d="M141.73,166.78s-3.31,17.08-16.33,19.69a16.66,16.66,0,0,1-6.26.14,15.3,15.3,0,0,1-9.81-6.44,16,16,0,0,1-1.75-3l18.9-9.57,1.56-.8a50,50,0,0,1,7.42-.95C137.89,165.73,140.32,165.91,141.73,166.78Z" style="fill:#fff;opacity:0.2;isolation:isolate"></path><path d="M130.14,177.81c-3.75,4-7.25,7-11,8.8a15.3,15.3,0,0,1-9.81-6.44,195.87,195.87,0,0,1,17.15-12.59l1.56-.8a50,50,0,0,1,7.42-.95C136.33,168.27,135.37,172.22,130.14,177.81Z" style="opacity:0.2;isolation:isolate"></path><path d="M92,152.9a74.59,74.59,0,0,1,35.19-1.17s6.4,10.63,8.39,19c0,0-10.07,14.79-23.8,14.35S92,152.9,92,152.9Z" style="fill:#263238"></path><path d="M135.55,170.75s-10.07,14.79-23.8,14.35S92,152.9,92,152.9a74.59,74.59,0,0,1,35.19-1.17,93.46,93.46,0,0,1,7.52,16C135,168.74,135.32,169.76,135.55,170.75Z" style="fill:#fff;opacity:0.2;isolation:isolate"></path><path d="M134.68,167.71c-6-2.94-8.69-12.58-7.52-16A93.46,93.46,0,0,1,134.68,167.71Z" style="opacity:0.2;isolation:isolate"></path><path d="M90.35,137.89s-1-18.4,15.1-14c20.27,5.58,8.24,29.9-1.73,26.67S90.35,137.89,90.35,137.89Z" style="fill:#263238"></path><path d="M116.47,152.59s-3.66,10.21-10,9.55a9.58,9.58,0,0,1-7.76-5.7,8,8,0,0,1-.37-.92s3.23-1,1.18-3.79l7.95-6.17a21.18,21.18,0,0,0,.12,2.55c.19,1.51.59,3.19,1.52,3.62C110.88,152.54,116.47,152.59,116.47,152.59Z" style="fill:#eec1bb"></path><path d="M107.58,148.11c-.64,3.63-2.64,9.18-8.88,8.33a8,8,0,0,1-.37-.92s3.23-1,1.18-3.79l7.95-6.17A21.18,21.18,0,0,0,107.58,148.11Z" style="opacity:0.2;isolation:isolate"></path><path d="M101,128.47c-7.11-.55-9.69,3.08-10.78,10.38-1.35,9.11.18,15.77,9.23,14.5C111.7,151.62,112.79,129.37,101,128.47Z" style="fill:#eec1bb"></path><path d="M94.82,138.8a15.35,15.35,0,0,1-2.29,2.79,1.94,1.94,0,0,0,1.81.95Z" style="fill:#d4827d"></path><path d="M99.22,138.55c-.06.59.21,1.09.6,1.13s.75-.4.81-1-.21-1.08-.6-1.12S99.28,138,99.22,138.55Z" style="fill:#263238"></path><path d="M100.19,137.61,99,137S99.5,138.12,100.19,137.61Z" style="fill:#263238"></path><path d="M92,137.7c-.06.59.21,1.09.6,1.13s.75-.4.81-1-.21-1.09-.6-1.13S92,137.12,92,137.7Z" style="fill:#263238"></path><path d="M93,136.76l-1.22-.62S92.26,137.27,93,136.76Z" style="fill:#263238"></path><path d="M99.67,133.64a3.72,3.72,0,0,1,3,1.32" style="fill:none;stroke:#263238;stroke-linecap:round;stroke-linejoin:round;stroke-width:0.7246800000000001px"></path><path d="M94.52,133a3.33,3.33,0,0,0-2.88.37" style="fill:none;stroke:#263238;stroke-linecap:round;stroke-linejoin:round;stroke-width:0.7246800000000001px"></path><path d="M107.83,141.05s-2.88-6.1-2-10.57c0,0-13.66-6.84-15.45,7.41,0,0-.4-12.81,11.85-12.15s12.26,18.5,5.54,23.35C107.74,149.09,109.61,144.87,107.83,141.05Z" style="fill:#263238"></path><path d="M106.55,142.47a3.14,3.14,0,0,1,3.58-2.6c2.19.41,2.89,5-2.68,5.69C106.65,145.65,106.27,144.85,106.55,142.47Z" style="fill:#eec1bb"></path><path d="M93.48,145.34a18.65,18.65,0,0,1,.72,2.51l.46,0c2.08-.12,3-.86,3.41-1.65a2.7,2.7,0,0,0,.26-1.25,2.5,2.5,0,0,0-.1-.72,10,10,0,0,1-4,1.08Z" style="fill:#263238"></path><path d="M94.19,145.29l.23.73c2-.11,3.33-.46,3.91-1.09a2.5,2.5,0,0,0-.1-.72A10,10,0,0,1,94.19,145.29Z" style="fill:#fff"></path><path d="M94.66,147.83c2.08-.12,3-.86,3.41-1.65a6.8,6.8,0,0,0-2.29.59A2.52,2.52,0,0,0,94.66,147.83Z" style="fill:#de5753"></path><path d="M113.2,130s1-5.67,7.65-5.67,7.51,3.66,13.12,4.07,8.77-3.48,8.77-6.51c0,0,1.78,1.45.85,4.48a4.47,4.47,0,0,0,.93-3s2.63,3.77-1.19,9.7-12.65,6.18-16.17,4.51c-9-4.24-12.71-1-12.71-1Z" style="fill:#263238"></path><path d="M115,135.62s3.1-2.66,10,1.27,14.9,4,17.21-.17" style="fill:none;stroke:#263238;stroke-linecap:round;stroke-linejoin:round;stroke-width:0.5px"></path><path d="M143.65,145.61l-11.42-2s-5-3.7-7.13-4.4-5.29,4.77-5.18,6.06,9.22,4.41,9.22,4.41l2.21-.55,13.47,3.77Z" style="fill:#eec1bb"></path><path d="M138.52,144.21l-.79,7.92-10.57-.4S127.52,163,134,165.8c0,0,26.66-4.32,28.14-9.27S158.1,146.54,138.52,144.21Z" style="fill:#263238"></path><path d="M162.15,156.53c-1.48,4.95-28.14,9.27-28.14,9.27-6.49-2.78-6.85-14.07-6.85-14.07l6.55.25,4,.15.79-7.92C158.1,146.54,163.64,151.57,162.15,156.53Z" style="fill:#fff;opacity:0.1;isolation:isolate"></path><path d="M148.72,155s-7.24,1-11,0a6,6,0,0,1-4-3l4,.15Z" style="opacity:0.2;isolation:isolate"></path></g></svg>
