<svg xmlns="http://www.w3.org/2000/svg" viewBox="0 0 500 500"><g id="freepik--background-complete--inject-22"><rect y="382.4" width="500" height="0.25" style="fill:#ebebeb"></rect><rect x="416.78" y="398.49" width="33.12" height="0.25" style="fill:#ebebeb"></rect><rect x="322.53" y="401.21" width="8.69" height="0.25" style="fill:#ebebeb"></rect><rect x="396.59" y="389.21" width="19.19" height="0.25" style="fill:#ebebeb"></rect><rect x="52.46" y="390.89" width="43.19" height="0.25" style="fill:#ebebeb"></rect><rect x="104.56" y="390.89" width="6.33" height="0.25" style="fill:#ebebeb"></rect><rect x="131.47" y="395.11" width="93.68" height="0.25" style="fill:#ebebeb"></rect><path d="M237,337.8H43.91a5.71,5.71,0,0,1-5.7-5.71V60.66A5.71,5.71,0,0,1,43.91,55H237a5.71,5.71,0,0,1,5.71,5.71V332.09A5.71,5.71,0,0,1,237,337.8ZM43.91,55.2a5.46,5.46,0,0,0-5.45,5.46V332.09a5.46,5.46,0,0,0,5.45,5.46H237a5.47,5.47,0,0,0,5.46-5.46V60.66A5.47,5.47,0,0,0,237,55.2Z" style="fill:#ebebeb"></path><path d="M453.31,337.8H260.21a5.72,5.72,0,0,1-5.71-5.71V60.66A5.72,5.72,0,0,1,260.21,55h193.1A5.71,5.71,0,0,1,459,60.66V332.09A5.71,5.71,0,0,1,453.31,337.8ZM260.21,55.2a5.47,5.47,0,0,0-5.46,5.46V332.09a5.47,5.47,0,0,0,5.46,5.46h193.1a5.47,5.47,0,0,0,5.46-5.46V60.66a5.47,5.47,0,0,0-5.46-5.46Z" style="fill:#ebebeb"></path><circle cx="140.46" cy="131.87" r="41.55" style="fill:#f5f5f5"></circle><path d="M66.31,123.68a6.77,6.77,0,0,1,6.76-6.77,6.62,6.62,0,0,1,2,.29A14.3,14.3,0,0,1,91.83,101a12.53,12.53,0,0,1,23.23,6.33h.21a11.55,11.55,0,0,1,0,23.09H72.88A6.77,6.77,0,0,1,66.31,123.68Z" style="fill:#ebebeb"></path><path d="M156.64,166.93a6.77,6.77,0,0,1,6.77-6.77,6.84,6.84,0,0,1,1.94.29,15.79,15.79,0,0,1-.15-2.08,14.31,14.31,0,0,1,17-14.08,12.53,12.53,0,0,1,23.23,6.33h.21a11.55,11.55,0,0,1,0,23.09H163.22A6.77,6.77,0,0,1,156.64,166.93Z" style="fill:#ebebeb"></path><path d="M42.4,343.56a12.5,12.5,0,0,1,16.1-12,27.12,27.12,0,0,1-.28-3.84,26.47,26.47,0,0,1,31.38-26,23.15,23.15,0,0,1,42.93,11.7h.39a21.34,21.34,0,0,1,0,42.68H54.54l0,0A12.51,12.51,0,0,1,42.4,343.56Z" style="fill:#ebebeb"></path><path d="M265.6,388.48A20.36,20.36,0,0,1,291.85,369a43.14,43.14,0,0,1,50.68-48.7,37.74,37.74,0,0,1,70,19.08c.21,0,.42,0,.63,0a34.79,34.79,0,0,1,0,69.57H285.39l0,0A20.38,20.38,0,0,1,265.6,388.48Z" style="fill:#ebebeb"></path><path d="M381.81,197a6.77,6.77,0,0,1,6.77-6.77,6.6,6.6,0,0,1,1.94.29,14.34,14.34,0,0,1,14.18-16.41,15.34,15.34,0,0,1,2.64.24,12.52,12.52,0,0,1,23.22,6.34h.21a11.54,11.54,0,1,1,0,23.08H388.39A6.76,6.76,0,0,1,381.81,197Z" style="fill:#ebebeb"></path><path d="M199,251.59a6.77,6.77,0,0,1,6.76-6.77,7,7,0,0,1,2,.28,14.11,14.11,0,0,1-.15-2.07,14.36,14.36,0,0,1,17-14.09,12.52,12.52,0,0,1,23.22,6.34l.21,0a11.55,11.55,0,0,1,0,23.09H205.57A6.76,6.76,0,0,1,199,251.59Z" style="fill:#ebebeb"></path><path d="M70.22,206a4.09,4.09,0,0,1,5.26-3.92,8.67,8.67,0,0,1,8.57-9.92,8.43,8.43,0,0,1,1.6.15,7.56,7.56,0,0,1,14,3.83h.13a7,7,0,0,1,0,14H74.19A4.08,4.08,0,0,1,70.22,206Z" style="fill:#ebebeb"></path><path d="M284.49,135.28a4.09,4.09,0,0,1,4.09-4.09,4.16,4.16,0,0,1,1.18.17,8.67,8.67,0,0,1,8.57-9.92,9.22,9.22,0,0,1,1.59.15,7.57,7.57,0,0,1,14,3.83h.13a7,7,0,1,1,0,14H288.47A4.08,4.08,0,0,1,284.49,135.28Z" style="fill:#ebebeb"></path><path d="M407.83,107.77a4.09,4.09,0,0,1,4.09-4.09,4.21,4.21,0,0,1,1.18.17,8.67,8.67,0,0,1,8.57-9.92,8.4,8.4,0,0,1,1.59.15,7.57,7.57,0,0,1,14,3.83h.13a7,7,0,0,1,0,14H411.81A4.08,4.08,0,0,1,407.83,107.77Z" style="fill:#ebebeb"></path></g><g id="freepik--Shadow--inject-22"><ellipse id="freepik--path--inject-22" cx="250" cy="416.24" rx="193.89" ry="11.32" style="fill:#f5f5f5"></ellipse></g><g id="freepik--Stars--inject-22"><polygon points="263.23 107.64 443.65 107.64 281.03 112.04 364.29 113.37 267.1 119.09 263.23 107.64" style="fill:#6DB5D6"></polygon><polygon points="263.23 107.64 443.65 107.64 281.03 112.04 364.29 113.37 267.1 119.09 263.23 107.64" style="fill:#fff;opacity:0.8"></polygon><path d="M270.74,121.8l-6.38-1a1.47,1.47,0,0,0-1.3.44l-4.47,4.66a1.47,1.47,0,0,1-2.52-.8l-1-6.38a1.48,1.48,0,0,0-.82-1.1l-5.82-2.81a1.48,1.48,0,0,1,0-2.65l5.77-2.9a1.47,1.47,0,0,0,.79-1.12l.88-6.4a1.48,1.48,0,0,1,2.51-.84l4.54,4.58a1.5,1.5,0,0,0,1.31.42l6.36-1.15a1.48,1.48,0,0,1,1.57,2.13l-3,5.74a1.47,1.47,0,0,0,0,1.37l3,5.69A1.48,1.48,0,0,1,270.74,121.8Z" style="fill:#6DB5D6"></path><path d="M270.74,121.8l-6.38-1a1.47,1.47,0,0,0-1.3.44l-4.47,4.66a1.47,1.47,0,0,1-2.52-.8l-1-6.38a1.48,1.48,0,0,0-.82-1.1l-5.82-2.81a1.48,1.48,0,0,1,0-2.65l5.77-2.9a1.47,1.47,0,0,0,.79-1.12l.88-6.4a1.48,1.48,0,0,1,2.51-.84l4.54,4.58a1.5,1.5,0,0,0,1.31.42l6.36-1.15a1.48,1.48,0,0,1,1.57,2.13l-3,5.74a1.47,1.47,0,0,0,0,1.37l3,5.69A1.48,1.48,0,0,1,270.74,121.8Z" style="fill:#fff;opacity:0.4"></path><polygon points="337.37 344.51 447.06 344.51 348.2 347.18 398.81 347.99 339.73 351.47 337.37 344.51" style="fill:#6DB5D6"></polygon><polygon points="337.37 344.51 447.06 344.51 348.2 347.18 398.81 347.99 339.73 351.47 337.37 344.51" style="fill:#fff;opacity:0.8"></polygon><path d="M341.94,353.12l-3.88-.63a.9.9,0,0,0-.79.26l-2.71,2.83a.9.9,0,0,1-1.54-.48l-.6-3.88a.9.9,0,0,0-.49-.67l-3.54-1.71a.9.9,0,0,1,0-1.61l3.5-1.76a.91.91,0,0,0,.49-.68l.53-3.89a.9.9,0,0,1,1.53-.51l2.76,2.78a.92.92,0,0,0,.8.26l3.86-.7a.9.9,0,0,1,1,1.29l-1.8,3.49a.89.89,0,0,0,0,.84l1.85,3.46A.9.9,0,0,1,341.94,353.12Z" style="fill:#6DB5D6"></path><path d="M341.94,353.12l-3.88-.63a.9.9,0,0,0-.79.26l-2.71,2.83a.9.9,0,0,1-1.54-.48l-.6-3.88a.9.9,0,0,0-.49-.67l-3.54-1.71a.9.9,0,0,1,0-1.61l3.5-1.76a.91.91,0,0,0,.49-.68l.53-3.89a.9.9,0,0,1,1.53-.51l2.76,2.78a.92.92,0,0,0,.8.26l3.86-.7a.9.9,0,0,1,1,1.29l-1.8,3.49a.89.89,0,0,0,0,.84l1.85,3.46A.9.9,0,0,1,341.94,353.12Z" style="fill:#fff;opacity:0.4"></path><polygon points="120.15 69.93 229.84 69.93 130.97 72.6 181.59 73.41 122.51 76.89 120.15 69.93" style="fill:#6DB5D6"></polygon><polygon points="120.15 69.93 229.84 69.93 130.97 72.6 181.59 73.41 122.51 76.89 120.15 69.93" style="fill:#fff;opacity:0.8"></polygon><path d="M124.72,78.54l-3.88-.63a.89.89,0,0,0-.79.26L117.33,81a.9.9,0,0,1-1.53-.49l-.6-3.88a.9.9,0,0,0-.49-.67l-3.54-1.71a.9.9,0,0,1,0-1.61l3.5-1.76a.91.91,0,0,0,.49-.68l.53-3.89a.89.89,0,0,1,1.52-.51L120,68.59a.9.9,0,0,0,.79.26l3.87-.7a.89.89,0,0,1,1,1.29l-1.79,3.49a.89.89,0,0,0,0,.84l1.86,3.46A.9.9,0,0,1,124.72,78.54Z" style="fill:#6DB5D6"></path><path d="M124.72,78.54l-3.88-.63a.89.89,0,0,0-.79.26L117.33,81a.9.9,0,0,1-1.53-.49l-.6-3.88a.9.9,0,0,0-.49-.67l-3.54-1.71a.9.9,0,0,1,0-1.61l3.5-1.76a.91.91,0,0,0,.49-.68l.53-3.89a.89.89,0,0,1,1.52-.51L120,68.59a.9.9,0,0,0,.79.26l3.87-.7a.89.89,0,0,1,1,1.29l-1.79,3.49a.89.89,0,0,0,0,.84l1.86,3.46A.9.9,0,0,1,124.72,78.54Z" style="fill:#fff;opacity:0.4"></path></g><g id="freepik--Birds--inject-22"><path d="M118.34,378.19s-.59-8.6,1.19-10.62,15.29-9.43,15.29-9.43,1,1.72-1.48,3.3l2.93-.59s.6,1.78-2.24,3.16c0,0,2.51.66.73,4.88S118.34,378.19,118.34,378.19Z" style="fill:#6DB5D6"></path><path d="M118.34,378.19s-.59-8.6,1.19-10.62,15.29-9.43,15.29-9.43,1,1.72-1.48,3.3l2.93-.59s.6,1.78-2.24,3.16c0,0,2.51.66.73,4.88S118.34,378.19,118.34,378.19Z" style="fill:#fff;opacity:0.4;isolation:isolate"></path><path d="M107.65,376c0-4.94,6.21-5,13.46-1.56,3,1.41,8.12-3.88,12.23-6.17,6.43-3.57,17.57-4.12,28.91-5.44,0,0,1.37,1.74-2.48,3l5.15,1.24s.28,2.38-5.15,2.64c0,0,1.5,1.55.25,4.81-2.19,5.74-13.39,6.53-13.39,6.53s5.44,1.29,19-.59A22.92,22.92,0,0,1,151,387.35l-6.4-.79A24.28,24.28,0,0,1,129,388.67c-8.44-1.85-14-7.65-16.35-8.44S107.65,377.57,107.65,376Z" style="fill:#6DB5D6"></path><path d="M165.62,380.43A22.92,22.92,0,0,1,151,387.35l-6.4-.79A24.28,24.28,0,0,1,129,388.67a26.11,26.11,0,0,1-3.35-1c-6.57-2.39-11-6.78-13-7.46-2.37-.79-5-2.66-5-4.24,0-4.94,6.21-5,13.46-1.56,3,1.41,8.12-3.88,12.23-6.17,6.43-3.57,17.57-4.12,28.91-5.44,0,0,1.37,1.74-2.48,3l5.15,1.24s.28,2.38-5.15,2.64c0,0,1.5,1.55.25,4.81-.88,2.3-3.2,3.8-5.67,4.77a29.07,29.07,0,0,1-7.72,1.76S152.07,382.31,165.62,380.43Z" style="fill:#fff;opacity:0.6000000000000001;isolation:isolate"></path><path d="M107.83,374.66a12.16,12.16,0,0,0-3.4,1.33,13.81,13.81,0,0,0,4,1.66l.18-1.49Z" style="fill:#6DB5D6"></path><path d="M110.45,374.51c0,.22-.11.4-.24.4s-.25-.18-.25-.4.11-.41.25-.41S110.45,374.28,110.45,374.51Z" style="fill:#263238"></path><path d="M159.77,369.68s1.5,1.55.25,4.81c-.88,2.3-3.2,3.8-5.67,4.77L146.63,381s-12.27,2.71-18.79-1.58c0,0,6.65-4.42,8.79-7.58s22.46-5.21,25.62-9c0,0,1.37,1.74-2.48,3l5.15,1.24S165.2,369.42,159.77,369.68Z" style="opacity:0.2;isolation:isolate"></path><path d="M165.62,380.43A22.92,22.92,0,0,1,151,387.35l-6.4-.79A24.28,24.28,0,0,1,129,388.67a26.11,26.11,0,0,1-3.35-1,31.46,31.46,0,0,0,11.4-.21,23.11,23.11,0,0,0,10-5S160.75,383.13,165.62,380.43Z" style="opacity:0.2;isolation:isolate"></path><path d="M46.15,248s-.35-5.13.71-6.34S56,236.07,56,236.07s.59,1-.88,2l1.75-.36s.35,1.06-1.34,1.89c0,0,1.49.39.43,2.91S46.15,248,46.15,248Z" style="fill:#6DB5D6"></path><path d="M46.15,248s-.35-5.13.71-6.34S56,236.07,56,236.07s.59,1-.88,2l1.75-.36s.35,1.06-1.34,1.89c0,0,1.49.39.43,2.91S46.15,248,46.15,248Z" style="fill:#fff;opacity:0.4;isolation:isolate"></path><path d="M39.77,246.72c0-2.95,3.71-3,8-.93,1.78.84,4.84-2.32,7.3-3.68,3.83-2.13,10.48-2.46,17.25-3.25,0,0,.81,1-1.48,1.78l3.07.74s.17,1.42-3.07,1.57c0,0,.89.93.15,2.88-1.31,3.42-8,3.89-8,3.89s3.24.77,11.33-.35a13.66,13.66,0,0,1-8.74,4.13L61.82,253a14.53,14.53,0,0,1-9.29,1.26c-5-1.11-8.34-4.57-9.76-5S39.78,247.66,39.77,246.72Z" style="fill:#6DB5D6"></path><path d="M74.37,249.37a13.66,13.66,0,0,1-8.74,4.13L61.81,253a14.51,14.51,0,0,1-9.28,1.26,16.68,16.68,0,0,1-2-.59c-3.92-1.43-6.54-4-7.76-4.45-1.41-.47-3-1.59-3-2.53,0-2.95,3.71-3,8-.93,1.78.84,4.84-2.32,7.3-3.68,3.83-2.13,10.48-2.46,17.25-3.25,0,0,.82,1-1.48,1.78l3.07.74s.17,1.42-3.07,1.57c0,0,.89.93.15,2.87a5.57,5.57,0,0,1-3.39,2.85,17.45,17.45,0,0,1-4.6,1.05S66.28,250.49,74.37,249.37Z" style="fill:#fff;opacity:0.6000000000000001;isolation:isolate"></path><path d="M39.88,245.93a7.17,7.17,0,0,0-2,.79,8.28,8.28,0,0,0,2.41,1l.1-.89Z" style="fill:#6DB5D6"></path><path d="M41.45,245.83c0,.14-.07.25-.15.25s-.15-.11-.15-.25.07-.24.15-.24S41.45,245.7,41.45,245.83Z" style="fill:#263238"></path><path d="M70.88,243s.89.93.15,2.87a5.57,5.57,0,0,1-3.39,2.85L63,249.72s-7.33,1.62-11.22-.94c0,0,4-2.64,5.25-4.53s13.4-3.1,15.29-5.39c0,0,.82,1-1.48,1.78l3.07.74S74.12,242.8,70.88,243Z" style="opacity:0.2;isolation:isolate"></path><path d="M74.37,249.37a13.66,13.66,0,0,1-8.74,4.13L61.81,253a14.51,14.51,0,0,1-9.28,1.26,16.68,16.68,0,0,1-2-.59,18.87,18.87,0,0,0,6.8-.12,13.83,13.83,0,0,0,6-3S71.46,251,74.37,249.37Z" style="opacity:0.2;isolation:isolate"></path></g><g id="freepik--character-2--inject-22"><polygon points="275.38 340.73 274.71 334 265.23 333.82 256.53 333.68 256.03 341.8 266.27 341.24 275.38 340.73" style="fill:#eec1bb"></polygon><path d="M274.14,332.6c-.74.09.75,9.15.75,9.15s6.26,5,8.08,10.36,4.79,1.95,4.19-4.14-1.07-10.73-1.5-15.06S281.81,331.65,274.14,332.6Z" style="fill:#263238"></path><path d="M277.7,346.31a1.33,1.33,0,0,1-.14.83.89.89,0,0,1-.95.32,1,1,0,0,1-.67-.43,3.77,3.77,0,0,1-.42-2c-.33.78-.74,1.48-1.22,1.55-.31.05-.59-.13-.83-.52a1.4,1.4,0,0,1-.14-1.18c.39-1.28,2.42-2.25,2.52-2.3a.19.19,0,0,1,.1,0H276l.07,0h0l.07.07A11.76,11.76,0,0,1,277.7,346.31ZM276,345.7a2.25,2.25,0,0,0,.31,1.05.49.49,0,0,0,.34.23c.37.06.45-.07.48-.11.31-.46-.36-2.08-1.06-3.37A10.64,10.64,0,0,0,276,345.7Zm-2.28-.32a.91.91,0,0,0,.14.41c.07.12.21.32.34.3.4-.07,1-1.44,1.36-2.84-.6.34-1.58,1-1.8,1.75A.84.84,0,0,0,273.75,345.38Z" style="fill:#6DB5D6"></path><polygon points="266.48 341.21 265.42 333.81 256.63 333.67 256.07 341.79 266.48 341.21" style="opacity:0.2;isolation:isolate"></polygon><path d="M165.57,284.38s22.7,1.52,52.74,40.72l42.89,6.8,2.27,10.57s-41.69,1.85-54.28-2.47-37.8-28.27-37.8-28.27l-21.22-17Z" style="fill:#6DB5D6"></path><path d="M263.47,342.47s-41.69,1.85-54.28-2.47-37.8-28.27-37.8-28.27l-21.22-17,15.4-10.32s17.57,1.18,42.25,28.16c2.35,2.57,4.77,5.36,7.24,8.42q1.6,2,3.25,4.14l42.89,6.8Z" style="fill:#fff;opacity:0.6000000000000001;isolation:isolate"></path><path d="M215.06,321c-6.6,1.12-15.62.58-26.54-5.15l14.2-4.12,5.1.85C210.17,315.11,212.59,317.9,215.06,321Z" style="opacity:0.2;isolation:isolate"></path><polygon points="260.16 331.21 262.53 343.5 264.93 343.25 262.53 331.7 260.16 331.21" style="fill:#6DB5D6"></polygon><polygon points="301.36 295.27 297.97 289.41 289.26 293.16 281.27 296.61 284.16 304.22 293.26 299.49 301.36 295.27" style="fill:#eec1bb"></polygon><path d="M296.87,288.38c-.63.38,4.45,8,4.45,8s7.79,2,11.64,6.11,5.17-.2,2.11-5.5-5.4-9.34-7.57-13.11S303.48,284.35,296.87,288.38Z" style="fill:#263238"></path><path d="M305.76,299.41a1.26,1.26,0,0,1,.22.81.9.9,0,0,1-.74.68,1,1,0,0,1-.78-.12,3.79,3.79,0,0,1-1.22-1.66c0,.84-.06,1.65-.47,1.91-.26.18-.59.13-1-.13a1.46,1.46,0,0,1-.62-1c-.17-1.33,1.28-3.06,1.36-3.15l.08-.06h0l.07,0h.08l.09,0A11.42,11.42,0,0,1,305.76,299.41Zm-1.77.12a2.36,2.36,0,0,0,.71.84.51.51,0,0,0,.41.06c.36-.1.38-.24.39-.29.09-.55-1.18-1.75-2.35-2.64A10.63,10.63,0,0,0,304,299.53Zm-2.21.65a.91.91,0,0,0,.3.32c.11.08.32.2.43.13.34-.23.3-1.72.07-3.15a4,4,0,0,0-.92,2.34A1,1,0,0,0,301.78,300.18Z" style="fill:#6DB5D6"></path><polygon points="293.44 299.38 289.42 293.07 281.35 296.56 284.2 304.19 293.44 299.38" style="opacity:0.2;isolation:isolate"></polygon><path d="M135.31,281.24s-1.23,18.16-2.49,19.14-22.63,16.22-22.63,16.22-7.38,1.19-9.73,2.38-.36,8.5.83,9.49,11.47-4.15,11.47-4.15l1.38-2.35s23.17-13.28,25.33-14.46,7.16-21.91,7.16-21.91Z" style="fill:#eec1bb"></path><path d="M138.75,271.31c-7,2.37-5.87,19.58-5.87,19.58l12.59,4,2.76-5.34Z" style="fill:#6DB5D6"></path><path d="M138.75,271.31c-7,2.37-5.87,19.58-5.87,19.58l12.59,4,2.76-5.34Z" style="opacity:0.2;isolation:isolate"></path><path d="M178.07,289.16s21.33-8,64.84,15.38l41.89-11.47,6.42,8.7S254,320.63,240.74,321.88s-46.09-10.19-46.09-10.19l-26.35-6.78Z" style="fill:#6DB5D6"></path><path d="M178.07,289.16s21.33-8,64.84,15.38l41.89-11.47,6.42,8.7S254,320.63,240.74,321.88s-46.09-10.19-46.09-10.19l-26.35-6.78Z" style="fill:#fff;opacity:0.6000000000000001;isolation:isolate"></path><polygon points="282.87 292.54 285.37 292.54 292.49 301.9 289.99 303.35 282.87 292.54" style="fill:#6DB5D6"></polygon><path d="M145.47,235.38s10.87-4.23,18.81,3c5,4.54,16.72,15.54,22.85,11.79s16-7.14,20.57-2.48c0,0-7.51-.5-11.27,2.48,0,0,7.12-2,9.69,0s6.53,1.11,6.53,1.11,3.3,10.6-14.18,11.87c0,0,9,1.81,13.19-1.72,0,0,1.19,7.55-19.19,9.91s-38.13-1.11-42.3-7.18S145.47,235.38,145.47,235.38Z" style="fill:#263238"></path><path d="M198.47,286.74s-3.95,20.4-19.51,23.52a20,20,0,0,1-7.47.17,18.32,18.32,0,0,1-11.72-7.69,18.88,18.88,0,0,1-2.09-3.61l22.58-11.44,1.86-.95A59.41,59.41,0,0,1,191,285.6C193.88,285.48,196.79,285.7,198.47,286.74Z" style="fill:#6DB5D6"></path><path d="M184.63,299.92c-4.48,4.8-8.66,8.33-13.14,10.51a18.32,18.32,0,0,1-11.72-7.69,232,232,0,0,1,20.49-15.05l1.86-.95A59.41,59.41,0,0,1,191,285.6C192,288.52,190.87,293.24,184.63,299.92Z" style="opacity:0.2;isolation:isolate"></path><path d="M138.75,271.31a82,82,0,0,1,42.32-2.55s7.64,12.7,10,22.72c0,0-12,17.67-28.43,17.15S138.75,271.31,138.75,271.31Z" style="fill:#6DB5D6"></path><path d="M174.34,271.84s-15.07-10.67-26.66-.53" style="fill:none;stroke:#263238;stroke-linecap:round;stroke-linejoin:round;stroke-width:0.5px"></path><path d="M137.1,252.24s-1.25-22,18-16.68c24.2,6.66,9.84,35.71-2.07,31.86S137.1,252.24,137.1,252.24Z" style="fill:#263238"></path><path d="M168.3,269.79s-4.38,12.2-12,11.41a11.45,11.45,0,0,1-9.27-6.81,9.4,9.4,0,0,1-.44-1.1s3.86-1.15,1.41-4.53l9.49-7.37a26,26,0,0,0,.15,3.05c.22,1.8.7,3.81,1.82,4.32C161.62,269.73,168.3,269.79,168.3,269.79Z" style="fill:#eec1bb"></path><path d="M157.68,264.44c-.77,4.33-3.16,11-10.61,9.95a9.4,9.4,0,0,1-.44-1.1s3.86-1.15,1.41-4.53l9.49-7.37A26,26,0,0,0,157.68,264.44Z" style="opacity:0.2;isolation:isolate"></path><path d="M149.79,241c-8.5-.65-11.59,3.69-12.88,12.4-1.62,10.89.21,18.85,11,17.33C162.6,268.63,163.9,242.05,149.79,241Z" style="fill:#eec1bb"></path><path d="M142.44,253.32a17.82,17.82,0,0,1-2.75,3.33,2.36,2.36,0,0,0,2.17,1.14Z" style="fill:#d4827d"></path><path d="M147.69,253c-.07.7.25,1.3.72,1.35s.9-.48,1-1.18-.25-1.3-.72-1.35S147.76,252.32,147.69,253Z" style="fill:#263238"></path><path d="M148.85,251.9l-1.45-.75S148,252.5,148.85,251.9Z" style="fill:#263238"></path><path d="M139,252c-.07.69.25,1.3.72,1.34s.9-.48,1-1.17-.25-1.3-.72-1.35S139.11,251.31,139,252Z" style="fill:#263238"></path><path d="M140.2,250.88l-1.45-.74S139.37,251.49,140.2,250.88Z" style="fill:#263238"></path><path d="M148.23,247.16a4.43,4.43,0,0,1,3.59,1.57" style="fill:none;stroke:#263238;stroke-linecap:round;stroke-linejoin:round;stroke-width:0.7246800000000001px"></path><path d="M142.08,246.33a4,4,0,0,0-3.44.43" style="fill:none;stroke:#263238;stroke-linecap:round;stroke-linejoin:round;stroke-width:0.7246800000000001px"></path><path d="M158,256s-3.44-7.29-2.43-12.63c0,0-16.31-8.18-18.45,8.86,0,0-.49-15.31,14.15-14.53s14.65,22.11,6.61,27.9C157.86,265.61,160.1,260.56,158,256Z" style="fill:#263238"></path><path d="M156.45,257.7a3.73,3.73,0,0,1,4.28-3.1c2.61.49,3.45,6-3.2,6.79C156.57,261.5,156.11,260.54,156.45,257.7Z" style="fill:#eec1bb"></path><path d="M140.83,261.13a20.65,20.65,0,0,1,.86,3l.56,0c2.49-.14,3.59-1,4.07-2a3.27,3.27,0,0,0,.31-1.49,3,3,0,0,0-.12-.86,11.76,11.76,0,0,1-4.83,1.28C141.16,261.12,140.83,261.13,140.83,261.13Z" style="fill:#263238"></path><path d="M141.68,261.06l.28.88c2.34-.14,4-.55,4.67-1.3a3,3,0,0,0-.12-.86A11.76,11.76,0,0,1,141.68,261.06Z" style="fill:#fff"></path><path d="M142.25,264.1c2.49-.14,3.59-1,4.07-2a8.09,8.09,0,0,0-2.74.7A3,3,0,0,0,142.25,264.1Z" style="fill:#de5753"></path><path d="M149.91,241.63s2.35,14.24,11.17,14.74-3.41-18.25-3.41-18.25-13.95-6.53-21.63.56,1.06,13.56,1.06,13.56S137.38,241.36,149.91,241.63Z" style="fill:#263238"></path><path d="M150.07,240.64S148.3,250.11,155,254" style="fill:none;stroke:#263238;stroke-linecap:round;stroke-linejoin:round;stroke-width:0.5px"></path><path d="M147.68,271.31c-3.69,3.24,15.72,10.28,26.66.53" style="fill:none;stroke:#263238;stroke-linecap:round;stroke-linejoin:round;stroke-width:0.5px"></path><polygon points="173.86 271.83 177.57 270.32 178.8 271.31 177.84 272.56 173.86 271.83" style="fill:#6DB5D6"></polygon><polygon points="173.86 271.83 177.57 270.32 178.8 271.31 177.84 272.56 173.86 271.83" style="fill:#fff;opacity:0.6000000000000001;isolation:isolate"></polygon><path d="M192.5,271.81s19.18,4.4,22.67,5.32,28.25,11.55,28.25,11.55,8.85-3.36,9.86-2.37,3.22,6,3,7.23-12.68,3.63-13.29,3.22A23,23,0,0,1,240.6,294s-24.56-8.61-29.18-9.64-20.33-2.4-20.33-2.4Z" style="fill:#eec1bb"></path><path d="M181.07,268.76s0,12.48,7.45,16.81l13.27-1.19,3.54-11.29S193,269,181.07,268.76Z" style="fill:#6DB5D6"></path><path d="M181.07,268.76s0,12.48,7.45,16.81l13.27-1.19,3.54-11.29S193,269,181.07,268.76Z" style="opacity:0.2;isolation:isolate"></path></g></svg>
