<svg xmlns="http://www.w3.org/2000/svg" viewBox="0 0 500 500"><g id="freepik--background-complete--inject-22"><rect y="382.4" width="500" height="0.25" style="fill:#ebebeb"></rect><rect x="416.78" y="398.49" width="33.12" height="0.25" style="fill:#ebebeb"></rect><rect x="322.53" y="401.21" width="8.69" height="0.25" style="fill:#ebebeb"></rect><rect x="396.59" y="389.21" width="19.19" height="0.25" style="fill:#ebebeb"></rect><rect x="52.46" y="390.89" width="43.19" height="0.25" style="fill:#ebebeb"></rect><rect x="104.56" y="390.89" width="6.33" height="0.25" style="fill:#ebebeb"></rect><rect x="131.47" y="395.11" width="93.68" height="0.25" style="fill:#ebebeb"></rect><path d="M237,337.8H43.91a5.71,5.71,0,0,1-5.7-5.71V60.66A5.71,5.71,0,0,1,43.91,55H237a5.71,5.71,0,0,1,5.71,5.71V332.09A5.71,5.71,0,0,1,237,337.8ZM43.91,55.2a5.46,5.46,0,0,0-5.45,5.46V332.09a5.46,5.46,0,0,0,5.45,5.46H237a5.47,5.47,0,0,0,5.46-5.46V60.66A5.47,5.47,0,0,0,237,55.2Z" style="fill:#ebebeb"></path><path d="M453.31,337.8H260.21a5.72,5.72,0,0,1-5.71-5.71V60.66A5.72,5.72,0,0,1,260.21,55h193.1A5.71,5.71,0,0,1,459,60.66V332.09A5.71,5.71,0,0,1,453.31,337.8ZM260.21,55.2a5.47,5.47,0,0,0-5.46,5.46V332.09a5.47,5.47,0,0,0,5.46,5.46h193.1a5.47,5.47,0,0,0,5.46-5.46V60.66a5.47,5.47,0,0,0-5.46-5.46Z" style="fill:#ebebeb"></path><circle cx="140.46" cy="131.87" r="41.55" style="fill:#f5f5f5"></circle><path d="M66.31,123.68a6.77,6.77,0,0,1,6.76-6.77,6.62,6.62,0,0,1,2,.29A14.3,14.3,0,0,1,91.83,101a12.53,12.53,0,0,1,23.23,6.33h.21a11.55,11.55,0,0,1,0,23.09H72.88A6.77,6.77,0,0,1,66.31,123.68Z" style="fill:#ebebeb"></path><path d="M156.64,166.93a6.77,6.77,0,0,1,6.77-6.77,6.84,6.84,0,0,1,1.94.29,15.79,15.79,0,0,1-.15-2.08,14.31,14.31,0,0,1,17-14.08,12.53,12.53,0,0,1,23.23,6.33h.21a11.55,11.55,0,0,1,0,23.09H163.22A6.77,6.77,0,0,1,156.64,166.93Z" style="fill:#ebebeb"></path><path d="M42.4,343.56a12.5,12.5,0,0,1,16.1-12,27.12,27.12,0,0,1-.28-3.84,26.47,26.47,0,0,1,31.38-26,23.15,23.15,0,0,1,42.93,11.7h.39a21.34,21.34,0,0,1,0,42.68H54.54l0,0A12.51,12.51,0,0,1,42.4,343.56Z" style="fill:#ebebeb"></path><path d="M265.6,388.48A20.36,20.36,0,0,1,291.85,369a43.14,43.14,0,0,1,50.68-48.7,37.74,37.74,0,0,1,70,19.08c.21,0,.42,0,.63,0a34.79,34.79,0,0,1,0,69.57H285.39l0,0A20.38,20.38,0,0,1,265.6,388.48Z" style="fill:#ebebeb"></path><path d="M381.81,197a6.77,6.77,0,0,1,6.77-6.77,6.6,6.6,0,0,1,1.94.29,14.34,14.34,0,0,1,14.18-16.41,15.34,15.34,0,0,1,2.64.24,12.52,12.52,0,0,1,23.22,6.34h.21a11.54,11.54,0,1,1,0,23.08H388.39A6.76,6.76,0,0,1,381.81,197Z" style="fill:#ebebeb"></path><path d="M199,251.59a6.77,6.77,0,0,1,6.76-6.77,7,7,0,0,1,2,.28,14.11,14.11,0,0,1-.15-2.07,14.36,14.36,0,0,1,17-14.09,12.52,12.52,0,0,1,23.22,6.34l.21,0a11.55,11.55,0,0,1,0,23.09H205.57A6.76,6.76,0,0,1,199,251.59Z" style="fill:#ebebeb"></path><path d="M70.22,206a4.09,4.09,0,0,1,5.26-3.92,8.67,8.67,0,0,1,8.57-9.92,8.43,8.43,0,0,1,1.6.15,7.56,7.56,0,0,1,14,3.83h.13a7,7,0,0,1,0,14H74.19A4.08,4.08,0,0,1,70.22,206Z" style="fill:#ebebeb"></path><path d="M284.49,135.28a4.09,4.09,0,0,1,4.09-4.09,4.16,4.16,0,0,1,1.18.17,8.67,8.67,0,0,1,8.57-9.92,9.22,9.22,0,0,1,1.59.15,7.57,7.57,0,0,1,14,3.83h.13a7,7,0,1,1,0,14H288.47A4.08,4.08,0,0,1,284.49,135.28Z" style="fill:#ebebeb"></path><path d="M407.83,107.77a4.09,4.09,0,0,1,4.09-4.09,4.21,4.21,0,0,1,1.18.17,8.67,8.67,0,0,1,8.57-9.92,8.4,8.4,0,0,1,1.59.15,7.57,7.57,0,0,1,14,3.83h.13a7,7,0,0,1,0,14H411.81A4.08,4.08,0,0,1,407.83,107.77Z" style="fill:#ebebeb"></path></g><g id="freepik--Shadow--inject-22"><ellipse id="freepik--path--inject-22" cx="250" cy="416.24" rx="193.89" ry="11.32" style="fill:#f5f5f5"></ellipse></g><g id="freepik--Stars--inject-22"><polygon points="263.23 107.64 443.65 107.64 281.03 112.04 364.29 113.37 267.1 119.09 263.23 107.64" style="fill:#6DB5D6"></polygon><polygon points="263.23 107.64 443.65 107.64 281.03 112.04 364.29 113.37 267.1 119.09 263.23 107.64" style="fill:#fff;opacity:0.8"></polygon><path d="M270.74,121.8l-6.38-1a1.47,1.47,0,0,0-1.3.44l-4.47,4.66a1.47,1.47,0,0,1-2.52-.8l-1-6.38a1.48,1.48,0,0,0-.82-1.1l-5.82-2.81a1.48,1.48,0,0,1,0-2.65l5.77-2.9a1.47,1.47,0,0,0,.79-1.12l.88-6.4a1.48,1.48,0,0,1,2.51-.84l4.54,4.58a1.5,1.5,0,0,0,1.31.42l6.36-1.15a1.48,1.48,0,0,1,1.57,2.13l-3,5.74a1.47,1.47,0,0,0,0,1.37l3,5.69A1.48,1.48,0,0,1,270.74,121.8Z" style="fill:#6DB5D6"></path><path d="M270.74,121.8l-6.38-1a1.47,1.47,0,0,0-1.3.44l-4.47,4.66a1.47,1.47,0,0,1-2.52-.8l-1-6.38a1.48,1.48,0,0,0-.82-1.1l-5.82-2.81a1.48,1.48,0,0,1,0-2.65l5.77-2.9a1.47,1.47,0,0,0,.79-1.12l.88-6.4a1.48,1.48,0,0,1,2.51-.84l4.54,4.58a1.5,1.5,0,0,0,1.31.42l6.36-1.15a1.48,1.48,0,0,1,1.57,2.13l-3,5.74a1.47,1.47,0,0,0,0,1.37l3,5.69A1.48,1.48,0,0,1,270.74,121.8Z" style="fill:#fff;opacity:0.4"></path><polygon points="337.37 344.51 447.06 344.51 348.2 347.18 398.81 347.99 339.73 351.47 337.37 344.51" style="fill:#6DB5D6"></polygon><polygon points="337.37 344.51 447.06 344.51 348.2 347.18 398.81 347.99 339.73 351.47 337.37 344.51" style="fill:#fff;opacity:0.8"></polygon><path d="M341.94,353.12l-3.88-.63a.9.9,0,0,0-.79.26l-2.71,2.83a.9.9,0,0,1-1.54-.48l-.6-3.88a.9.9,0,0,0-.49-.67l-3.54-1.71a.9.9,0,0,1,0-1.61l3.5-1.76a.91.91,0,0,0,.49-.68l.53-3.89a.9.9,0,0,1,1.53-.51l2.76,2.78a.92.92,0,0,0,.8.26l3.86-.7a.9.9,0,0,1,1,1.29l-1.8,3.49a.89.89,0,0,0,0,.84l1.85,3.46A.9.9,0,0,1,341.94,353.12Z" style="fill:#6DB5D6"></path><path d="M341.94,353.12l-3.88-.63a.9.9,0,0,0-.79.26l-2.71,2.83a.9.9,0,0,1-1.54-.48l-.6-3.88a.9.9,0,0,0-.49-.67l-3.54-1.71a.9.9,0,0,1,0-1.61l3.5-1.76a.91.91,0,0,0,.49-.68l.53-3.89a.9.9,0,0,1,1.53-.51l2.76,2.78a.92.92,0,0,0,.8.26l3.86-.7a.9.9,0,0,1,1,1.29l-1.8,3.49a.89.89,0,0,0,0,.84l1.85,3.46A.9.9,0,0,1,341.94,353.12Z" style="fill:#fff;opacity:0.4"></path><polygon points="120.15 69.93 229.84 69.93 130.97 72.6 181.59 73.41 122.51 76.89 120.15 69.93" style="fill:#6DB5D6"></polygon><polygon points="120.15 69.93 229.84 69.93 130.97 72.6 181.59 73.41 122.51 76.89 120.15 69.93" style="fill:#fff;opacity:0.8"></polygon><path d="M124.72,78.54l-3.88-.63a.89.89,0,0,0-.79.26L117.33,81a.9.9,0,0,1-1.53-.49l-.6-3.88a.9.9,0,0,0-.49-.67l-3.54-1.71a.9.9,0,0,1,0-1.61l3.5-1.76a.91.91,0,0,0,.49-.68l.53-3.89a.89.89,0,0,1,1.52-.51L120,68.59a.9.9,0,0,0,.79.26l3.87-.7a.89.89,0,0,1,1,1.29l-1.79,3.49a.89.89,0,0,0,0,.84l1.86,3.46A.9.9,0,0,1,124.72,78.54Z" style="fill:#6DB5D6"></path><path d="M124.72,78.54l-3.88-.63a.89.89,0,0,0-.79.26L117.33,81a.9.9,0,0,1-1.53-.49l-.6-3.88a.9.9,0,0,0-.49-.67l-3.54-1.71a.9.9,0,0,1,0-1.61l3.5-1.76a.91.91,0,0,0,.49-.68l.53-3.89a.89.89,0,0,1,1.52-.51L120,68.59a.9.9,0,0,0,.79.26l3.87-.7a.89.89,0,0,1,1,1.29l-1.79,3.49a.89.89,0,0,0,0,.84l1.86,3.46A.9.9,0,0,1,124.72,78.54Z" style="fill:#fff;opacity:0.4"></path></g><g id="freepik--Birds--inject-22"><path d="M118.34,378.19s-.59-8.6,1.19-10.62,15.29-9.43,15.29-9.43,1,1.72-1.48,3.3l2.93-.59s.6,1.78-2.24,3.16c0,0,2.51.66.73,4.88S118.34,378.19,118.34,378.19Z" style="fill:#6DB5D6"></path><path d="M118.34,378.19s-.59-8.6,1.19-10.62,15.29-9.43,15.29-9.43,1,1.72-1.48,3.3l2.93-.59s.6,1.78-2.24,3.16c0,0,2.51.66.73,4.88S118.34,378.19,118.34,378.19Z" style="fill:#fff;opacity:0.4;isolation:isolate"></path><path d="M107.65,376c0-4.94,6.21-5,13.46-1.56,3,1.41,8.12-3.88,12.23-6.17,6.43-3.57,17.57-4.12,28.91-5.44,0,0,1.37,1.74-2.48,3l5.15,1.24s.28,2.38-5.15,2.64c0,0,1.5,1.55.25,4.81-2.19,5.74-13.39,6.53-13.39,6.53s5.44,1.29,19-.59A22.92,22.92,0,0,1,151,387.35l-6.4-.79A24.28,24.28,0,0,1,129,388.67c-8.44-1.85-14-7.65-16.35-8.44S107.65,377.57,107.65,376Z" style="fill:#6DB5D6"></path><path d="M165.62,380.43A22.92,22.92,0,0,1,151,387.35l-6.4-.79A24.28,24.28,0,0,1,129,388.67a26.11,26.11,0,0,1-3.35-1c-6.57-2.39-11-6.78-13-7.46-2.37-.79-5-2.66-5-4.24,0-4.94,6.21-5,13.46-1.56,3,1.41,8.12-3.88,12.23-6.17,6.43-3.57,17.57-4.12,28.91-5.44,0,0,1.37,1.74-2.48,3l5.15,1.24s.28,2.38-5.15,2.64c0,0,1.5,1.55.25,4.81-.88,2.3-3.2,3.8-5.67,4.77a29.07,29.07,0,0,1-7.72,1.76S152.07,382.31,165.62,380.43Z" style="fill:#fff;opacity:0.6000000000000001;isolation:isolate"></path><path d="M107.83,374.66a12.16,12.16,0,0,0-3.4,1.33,13.81,13.81,0,0,0,4,1.66l.18-1.49Z" style="fill:#6DB5D6"></path><path d="M110.45,374.51c0,.22-.11.4-.24.4s-.25-.18-.25-.4.11-.41.25-.41S110.45,374.28,110.45,374.51Z" style="fill:#263238"></path><path d="M159.77,369.68s1.5,1.55.25,4.81c-.88,2.3-3.2,3.8-5.67,4.77L146.63,381s-12.27,2.71-18.79-1.58c0,0,6.65-4.42,8.79-7.58s22.46-5.21,25.62-9c0,0,1.37,1.74-2.48,3l5.15,1.24S165.2,369.42,159.77,369.68Z" style="opacity:0.2;isolation:isolate"></path><path d="M165.62,380.43A22.92,22.92,0,0,1,151,387.35l-6.4-.79A24.28,24.28,0,0,1,129,388.67a26.11,26.11,0,0,1-3.35-1,31.46,31.46,0,0,0,11.4-.21,23.11,23.11,0,0,0,10-5S160.75,383.13,165.62,380.43Z" style="opacity:0.2;isolation:isolate"></path><path d="M46.15,248s-.35-5.13.71-6.34S56,236.07,56,236.07s.59,1-.88,2l1.75-.36s.35,1.06-1.34,1.89c0,0,1.49.39.43,2.91S46.15,248,46.15,248Z" style="fill:#6DB5D6"></path><path d="M46.15,248s-.35-5.13.71-6.34S56,236.07,56,236.07s.59,1-.88,2l1.75-.36s.35,1.06-1.34,1.89c0,0,1.49.39.43,2.91S46.15,248,46.15,248Z" style="fill:#fff;opacity:0.4;isolation:isolate"></path><path d="M39.77,246.72c0-2.95,3.71-3,8-.93,1.78.84,4.84-2.32,7.3-3.68,3.83-2.13,10.48-2.46,17.25-3.25,0,0,.81,1-1.48,1.78l3.07.74s.17,1.42-3.07,1.57c0,0,.89.93.15,2.88-1.31,3.42-8,3.89-8,3.89s3.24.77,11.33-.35a13.66,13.66,0,0,1-8.74,4.13L61.82,253a14.53,14.53,0,0,1-9.29,1.26c-5-1.11-8.34-4.57-9.76-5S39.78,247.66,39.77,246.72Z" style="fill:#6DB5D6"></path><path d="M74.37,249.37a13.66,13.66,0,0,1-8.74,4.13L61.81,253a14.51,14.51,0,0,1-9.28,1.26,16.68,16.68,0,0,1-2-.59c-3.92-1.43-6.54-4-7.76-4.45-1.41-.47-3-1.59-3-2.53,0-2.95,3.71-3,8-.93,1.78.84,4.84-2.32,7.3-3.68,3.83-2.13,10.48-2.46,17.25-3.25,0,0,.82,1-1.48,1.78l3.07.74s.17,1.42-3.07,1.57c0,0,.89.93.15,2.87a5.57,5.57,0,0,1-3.39,2.85,17.45,17.45,0,0,1-4.6,1.05S66.28,250.49,74.37,249.37Z" style="fill:#fff;opacity:0.6000000000000001;isolation:isolate"></path><path d="M39.88,245.93a7.17,7.17,0,0,0-2,.79,8.28,8.28,0,0,0,2.41,1l.1-.89Z" style="fill:#6DB5D6"></path><path d="M41.45,245.83c0,.14-.07.25-.15.25s-.15-.11-.15-.25.07-.24.15-.24S41.45,245.7,41.45,245.83Z" style="fill:#263238"></path><path d="M70.88,243s.89.93.15,2.87a5.57,5.57,0,0,1-3.39,2.85L63,249.72s-7.33,1.62-11.22-.94c0,0,4-2.64,5.25-4.53s13.4-3.1,15.29-5.39c0,0,.82,1-1.48,1.78l3.07.74S74.12,242.8,70.88,243Z" style="opacity:0.2;isolation:isolate"></path><path d="M74.37,249.37a13.66,13.66,0,0,1-8.74,4.13L61.81,253a14.51,14.51,0,0,1-9.28,1.26,16.68,16.68,0,0,1-2-.59,18.87,18.87,0,0,0,6.8-.12,13.83,13.83,0,0,0,6-3S71.46,251,74.37,249.37Z" style="opacity:0.2;isolation:isolate"></path></g><g id="freepik--character-3--inject-22"><g id="freepik--group--inject-22"><path d="M273.53,174.54v-4.87a4.83,4.83,0,0,0-6.26-4.62h0c-4.06,1.3-14,38.36-14,38.36s-6.76,7.47-6.75,9,6.49,6.18,7.5,4.79,7-5.13,7.3-7.63-2.09-5.14-2.09-5.14S270.59,180.45,273.53,174.54Z" style="fill:#b97964"></path><path d="M273.53,174.54v-4.87a4.83,4.83,0,0,0-6.26-4.62h0c-4.06,1.3-14,38.36-14,38.36s-6.76,7.47-6.75,9,6.49,6.18,7.5,4.79,7-5.13,7.3-7.63-2.09-5.14-2.09-5.14S270.59,180.45,273.53,174.54Z" style="opacity:0.1;isolation:isolate"></path><path d="M272.29,196.25l-4.89-9.93s-1.1-8.74,6.65-9.93l5.67,2Z" style="fill:#6DB5D6"></path><path d="M272.29,196.25l-4.89-9.93s-1.1-8.74,6.65-9.93l5.67,2Z" style="fill:#fff;opacity:0.5"></path><polygon points="396.11 304.45 393.19 312.02 375.43 305.88 378.35 298.31 396.11 304.45" style="fill:#b97964"></polygon><path d="M392.66,312.36l-2.24-9.59a.72.72,0,0,1,.38-.8l6.67-3.2a1.2,1.2,0,0,1,1.59.58,1.06,1.06,0,0,1,.09.25c.67,3.11,1,5.42,1.92,9.31.56,2.41,2.51,9.59,3.28,12.9s-2.4,4.51-3,3.23c-2.75-5.78-5.65-9.93-7.86-11.47A2,2,0,0,1,392.66,312.36Z" style="fill:#263238"></path><path d="M394.66,314.65a2.4,2.4,0,0,1-.05,1.61,1.15,1.15,0,0,1-.91.63.57.57,0,0,1-.6-.2c-.66-.77.31-3.69.43-4a.17.17,0,0,1,.16-.13.18.18,0,0,1,.19.1A10.37,10.37,0,0,1,394.66,314.65Zm-1.36,1.56a.43.43,0,0,0,.1.23c0,.05.1.09.25.07a.82.82,0,0,0,.62-.41,4,4,0,0,0-.52-2.85A7.84,7.84,0,0,0,393.3,316.21Z" style="fill:#6DB5D6"></path><path d="M393.9,312.7l0,.09c-.26.91-1.63,2.9-2.5,2.93a.62.62,0,0,1-.63-.49,1.06,1.06,0,0,1,.06-.85c.53-1.08,2.75-1.8,2.86-1.84a.19.19,0,0,1,.19,0A.14.14,0,0,1,393.9,312.7ZM391.07,315l0,.09c.06.24.2.23.26.23.53,0,1.61-1.33,2-2.29a4.61,4.61,0,0,0-2.26,1.51A.73.73,0,0,0,391.07,315Z" style="fill:#6DB5D6"></path><polygon points="378.36 298.31 375.44 305.88 384.6 309.04 387.52 301.47 378.36 298.31" style="opacity:0.2;isolation:isolate"></polygon><path d="M386.73,299.61l-6.08,9.94s-41.9-9.66-50.46-25.45c-6.37-11.74-8.42-33.31-9.05-43.61-.22-3.56-.27-5.77-.27-5.77L315.58,213l37.86,4.29s-7.06,22.67-8.49,40.06c-.56,6.86-.25,12.89,1.72,16.39C353.63,286.09,386.73,299.61,386.73,299.61Z" style="fill:#263238"></path><path d="M353.44,217.26s-7.06,22.67-8.49,40.06a39.91,39.91,0,0,1-6.3-15c-5,.65-12.23-.64-17.51-1.86-.22-3.56-.27-5.77-.27-5.77L315.58,213Z" style="opacity:0.2;isolation:isolate"></path><polygon points="443.9 307 438.37 312.93 424.17 300.62 429.7 294.68 443.9 307" style="fill:#b97964"></polygon><path d="M437.75,313.05l1.49-9.73a.7.7,0,0,1,.66-.6l7.37-.49a1.21,1.21,0,0,1,1.27,1.13,1.18,1.18,0,0,1,0,.26c-.53,3.14-1.08,5.41-1.68,9.36-.37,2.44-1.25,9.83-1.76,13.19s-3.91,3.3-4,1.87c-.4-6.38-1.55-11.31-3-13.56A2,2,0,0,1,437.75,313.05Z" style="fill:#263238"></path><path d="M438.75,315.92a2.48,2.48,0,0,1-.64,1.48,1.15,1.15,0,0,1-1.08.24.57.57,0,0,1-.48-.41c-.33-1,1.66-3.3,1.89-3.56a.19.19,0,0,1,.2-.07.22.22,0,0,1,.14.17A9.65,9.65,0,0,1,438.75,315.92Zm-1.84.94a.43.43,0,0,0,0,.25c0,.05.05.12.21.16a.81.81,0,0,0,.72-.15,4,4,0,0,0,.58-2.84A7.75,7.75,0,0,0,436.91,316.86Z" style="fill:#6DB5D6"></path><path d="M438.78,313.82v.1c-.58.75-2.59,2.08-3.41,1.79A.64.64,0,0,1,435,315a1,1,0,0,1,.37-.76c.9-.82,3.23-.66,3.35-.65a.2.2,0,0,1,.16.12A.26.26,0,0,1,438.78,313.82Zm-3.5,1.12V315c0,.24.1.29.15.3.5.19,2-.63,2.74-1.36a4.54,4.54,0,0,0-2.65.56A.73.73,0,0,0,435.28,314.94Z" style="fill:#6DB5D6"></path><polygon points="429.71 294.69 424.18 300.63 431.51 306.97 437.04 301.03 429.71 294.69" style="opacity:0.2;isolation:isolate"></polygon><path d="M435.21,296.6l-9.5,9.7s-37-23.14-50.07-38c-5.53-6.29-26-34.49-30.89-41.24l-1.06-1.46L318.51,207l18.32-28.62s8,2.33,17,10.35c1.33,1.18,2.68,2.49,4,3.94a67.81,67.81,0,0,1,12.43,19.17q1.2,2.72,2.25,5.72C387.88,261.5,435.21,296.6,435.21,296.6Z" style="fill:#263238"></path><path d="M270.79,190.83s8.77-15,36.83-17.3,49.84,14.21,49.84,14.21,5.57,35.07-22.79,44.79c-10.24,3.51-21.75-2.18-21.75-2.18l-2.53-11.75S274.2,201.88,270.79,190.83Z" style="fill:#6DB5D6"></path><path d="M356.4,207.77c-1.66,6.8-5,14-11.65,19.3a32.93,32.93,0,0,1-10.08,5.46c-10.24,3.51-21.75-2.18-21.75-2.18l-2.53-11.75s-36.19-16.72-39.6-27.77c0,0,8.77-15,36.83-17.3s49.84,14.21,49.84,14.21,0,.22.08.63c.1.8.26,2.31.32,4.31A55.68,55.68,0,0,1,356.4,207.77Z" style="fill:#fff;opacity:0.8"></path><path d="M336,170.57s21.48-9.44,26.47-10.92,40.42,29.06,40.42,29.06,11.94,2.87,13,4.39-2.3,10.69-4.26,10-10.56-.38-12.61-2.68-1.42-6.61-1.42-6.61-34.43-20.16-36.43-21.08C359.65,172,340,182.4,340,182.4Z" style="fill:#b97964"></path><path d="M370.29,211.85a134.89,134.89,0,0,1-13.89-4.08c-21.19-7.55-26.61-16.65-26.61-16.65l24-2.38,3.71-.37c.1.8.26,2.31.32,4.31A67.81,67.81,0,0,1,370.29,211.85Z" style="opacity:0.2;isolation:isolate"></path><path d="M292.64,195.08a10.4,10.4,0,0,1-5.47-.53c-5.45-2-8.55-7.94-8.55-7.94,1.43-7.53,8.94-10.38,15.37-10.84a20.2,20.2,0,0,1,8.11.82C307.34,178.64,301.43,193.59,292.64,195.08Z" style="fill:#b97964"></path><path d="M287.17,194.55c-5.45-2-8.55-7.94-8.55-7.94,1.43-7.53,8.94-10.38,15.37-10.84C294.94,180.16,295.46,188.84,287.17,194.55Z" style="opacity:0.2;isolation:isolate"></path><path d="M276.87,190.89c.37,5.14,9.82,15.68,22.9,22.38,0,0-16.43-3-24.62-13.08s-5.19-13.1,1.67-16Z" style="fill:#6DB5D6"></path><path d="M276.87,190.89c.37,5.14,9.82,15.68,22.9,22.38,0,0-16.43-3-24.62-13.08s-5.19-13.1,1.67-16Z" style="fill:#fff;opacity:0.4"></path><path d="M293.53,174.7c11.57-.92,10.43,3.53,16.35,10.76,12.07,14.73,76.85,12.67,76.85,12.67S373.37,180.14,352,174,293.53,174.7,293.53,174.7Z" style="fill:#6DB5D6"></path><path d="M293.53,174.7c11.57-.92,10.43,3.53,16.35,10.76,12.07,14.73,76.85,12.67,76.85,12.67S373.37,180.14,352,174,293.53,174.7,293.53,174.7Z" style="fill:#fff;opacity:0.4"></path><path d="M270,190.89s-.11-11.47,15.71-17.58,29.92,8.59,29.92,8.59l-5.9-.54.2,4.1s-10-7.9-19.35-7.07-13.66,12.5-13.66,12.5l-4-4Z" style="fill:#6DB5D6"></path><path d="M270,190.89s-.11-11.47,15.71-17.58,29.92,8.59,29.92,8.59l-5.9-.54.2,4.1s-10-7.9-19.35-7.07-13.66,12.5-13.66,12.5l-4-4Z" style="fill:#fff;opacity:0.5"></path><path d="M270.22,160.81s-2,11.13,3.83,15.58,6.36-16.34,6.36-16.34Z" style="fill:#263238"></path><path d="M291,185.72a10.14,10.14,0,0,1-11.75,3.62,11.24,11.24,0,0,1-6.3-5.42,9.72,9.72,0,0,1-.51-1.08c-2.74-6.9-3.36-18.87,4-23.15A11,11,0,0,1,293,168.4C293.69,176.41,294.47,181.08,291,185.72Z" style="fill:#b97964"></path><path d="M281.27,172.36c.14.64-.17,1.22-.6,1.28s-.84-.42-.94-1.06.18-1.22.6-1.28S281.17,171.71,281.27,172.36Z" style="fill:#263238"></path><path d="M274,173.42c.14.63-.18,1.22-.6,1.28s-.84-.42-.93-1.07.18-1.22.6-1.28S273.86,172.8,274,173.42Z" style="fill:#263238"></path><path d="M276.32,173.4a23,23,0,0,1-2.29,6,3.75,3.75,0,0,0,3.19.14Z" style="fill:#a24e3f"></path><path d="M283.2,169.67a.4.4,0,0,1-.39-.1,3.12,3.12,0,0,0-2.62-.92.38.38,0,0,1-.16-.75h0a3.87,3.87,0,0,1,3.32,1.12.38.38,0,0,1,0,.54h0Z" style="fill:#263238"></path><path d="M270.45,171.35a.37.37,0,0,1-.23,0,.38.38,0,0,1-.25-.47h0a3.82,3.82,0,0,1,2.43-2.53.39.39,0,0,1,.47.27h0a.4.4,0,0,1-.27.47h0a3.09,3.09,0,0,0-1.89,2A.43.43,0,0,1,270.45,171.35Z" style="fill:#263238"></path><path d="M285.76,159.33l-.1,3.56a2.64,2.64,0,0,1,1.64,3.18c-.86,3.08,1.27,7.51,3.72,9.13,0,0-.06-1.29,1.06-1.09s2.3,6.22,2.3,6.22,2.73-.89,3.87-8.08c1.05-6.65-1.74-10.3-3.31-12.68Z" style="fill:#263238"></path><path d="M276.87,181.54a19.34,19.34,0,0,1,1.13,2.73l.52-.08c2.33-.4,3.28-1.35,3.62-2.29a3,3,0,0,0,.14-1.43,2.91,2.91,0,0,0-.21-.8,11.27,11.27,0,0,1-4.4,1.72C277.18,181.5,276.87,181.54,276.87,181.54Z" style="fill:#263238"></path><path d="M277.67,181.39l.35.8c2.19-.38,3.68-.94,4.26-1.72a2.91,2.91,0,0,0-.21-.8A11.27,11.27,0,0,1,277.67,181.39Z" style="fill:#fff"></path><path d="M278.52,184.19c2.33-.4,3.28-1.35,3.62-2.29a7.69,7.69,0,0,0-2.5.95A2.9,2.9,0,0,0,278.52,184.19Z" style="fill:#de5753"></path><path d="M285.66,162.89c-2.64-.61-9.11-.23-13.73,2.17,0,0-2.12-.19-3.21-4.84s2.06-7.1,3-6.51-1.17,1.42-1.26,2.73c0,0,5.5-2.32,6.23-5.39s2.91-4,3.84-2.82S278,152.6,278,152.6s4,.15,6.09-2.88,5.61-4.46,6.5-3.25-3.57,2.23-4.79,3.76c0,0,6.77-2.56,9.68-.6s2.32,2.82.27,2.35a7.85,7.85,0,0,0-4.49.81s5.18,0,7.12,2.18,4.19.95,4.72,2.12-3.61,1.54-3.61,1.54,2.31,1.93,4.81,1.14,3.33,3.06-2.57,1.91c0,0,.15,4,2.3,4.5s1.25,2.24-.28,1.92-2.95-2.34-2.95-2.34,2.59,4.47,1.48,6-2-2.11-2-2.11,1.25,5.73.38,6-1.9-1.85-1.9-1.85,1.22,4-.43,4.7a10.07,10.07,0,0,1-4,.45S290.34,164,285.66,162.89Z" style="fill:#263238"></path><path d="M297.43,174.42a7.66,7.66,0,0,1-3.79,4.45c-2.39,1.21-4.1-.81-3.88-3.34.23-2.25,1.72-5.66,4.34-5.78S298.16,172.05,297.43,174.42Z" style="fill:#b97964"></path><path d="M321.35,171.83s-1,12.77,14.64,16.51l20-10.17-4.82-14.77Z" style="fill:#6DB5D6"></path><path d="M321.35,171.83s-1,12.77,14.64,16.51l20-10.17-4.82-14.77Z" style="fill:#fff;opacity:0.5"></path></g></g></svg>
