<svg xmlns="http://www.w3.org/2000/svg" viewBox="0 0 500 500"><g id="freepik--Shadow--inject-59"><ellipse id="freepik--path--inject-59" cx="250" cy="416.24" rx="193.89" ry="11.32" style="fill:#f5f5f5"></ellipse></g><g id="freepik--time-machine--inject-59"><rect x="218.24" y="387.43" width="12.5" height="24.22" style="fill:#263238"></rect><path d="M255.55,158.51H229.82c.16-1.77.3-3.57.45-5.37q.82-9.7,1.58-19.86a3.54,3.54,0,0,1,2.3-3,31.29,31.29,0,0,1,17.06,0,3.53,3.53,0,0,1,2.31,3q.79,10.46,1.62,20.44C255.28,155.33,255.41,156.93,255.55,158.51Z" style="fill:#6DB5D6"></path><ellipse cx="235.84" cy="144.77" rx="4.18" ry="10.16" style="fill:#fff;opacity:0.2"></ellipse><path d="M236.83,143.81c0,2.61-1.05,4.72-2.34,4.72s-2.33-2.11-2.33-4.72,1-4.71,2.33-4.71S236.83,141.21,236.83,143.81Z" style="fill:#fff;opacity:0.30000000000000004"></path><path d="M242.5,143.07v1.1a1.72,1.72,0,0,0,1.64,1.71V156.7h-2.88V140a1.44,1.44,0,1,1,2.88,0v1.3A1.73,1.73,0,0,0,242.5,143.07Z" style="opacity:0.2"></path><path d="M251.21,144.36c-.11,2-.64,3.57-1.29,3.57a.52.52,0,0,1-.3-.12l-5.69-2.32c-.57,0-1-.84-1-1.87s.47-1.87,1-1.87l5.68-2.41a.51.51,0,0,1,.31-.14c.65,0,1.18,1.54,1.29,3.58-.11-1.78-.59-3.12-1.17-3.12s-1.22,1.75-1.22,3.9.55,3.91,1.22,3.91S251.1,146.13,251.21,144.36Z" style="opacity:0.2"></path><path d="M241,141.54l-5.19-2.2a.52.52,0,0,0-.31-.13c-.74,0-1.33,1.95-1.33,4.36s.59,4.36,1.33,4.36a.55.55,0,0,0,.3-.12l5.2-2.12Z" style="opacity:0.2"></path><ellipse cx="249.5" cy="144.2" rx="4.18" ry="10.16" style="fill:#fff;opacity:0.5"></ellipse><path d="M253.25,143.81c0,2.1-.84,3.8-1.87,3.8s-1.88-1.7-1.88-3.8.84-3.79,1.88-3.79S253.25,141.72,253.25,143.81Z" style="fill:#fff;opacity:0.5"></path><path d="M233.14,132.34a37.76,37.76,0,0,1,18.78,0s-2.28-2.68-9.85-2.68S233.14,132.34,233.14,132.34Z" style="fill:#fff;opacity:0.30000000000000004"></path><path d="M255.55,158.51H229.82c.16-1.77.3-3.57.45-5.37,1,.8,3.94,2.3,12.43,2.3,7.12,0,10.72-1,12.44-1.72C255.28,155.33,255.41,156.93,255.55,158.51Z" style="opacity:0.2"></path><path d="M250.88,160.55V158a3.11,3.11,0,0,0-3.11-3.11H237.6a3.11,3.11,0,0,0-3.11,3.11v2.51Z" style="fill:#263238"></path><rect x="229.19" y="157.14" width="26.99" height="5.23" rx="1.01" style="fill:#263238"></rect><rect x="229.19" y="157.14" width="26.99" height="5.23" rx="1.01" style="fill:#fff;opacity:0.4"></rect><path d="M262.19,119.05a.43.43,0,0,0-.7-.51,17.09,17.09,0,0,1-2.13,2.07,17.31,17.31,0,0,0-2.27,2.2,9.26,9.26,0,0,0-1.84,3.52.43.43,0,0,0,.34.51h.08a.43.43,0,0,0,.42-.34,8.66,8.66,0,0,1,1.7-3.18,17.09,17.09,0,0,1,2.13-2.07A17.31,17.31,0,0,0,262.19,119.05Z" style="fill:#6DB5D6"></path><path d="M272.28,134.78a.44.44,0,0,0-.58-.2,21.34,21.34,0,0,1-6.08,1.44,27.18,27.18,0,0,0-4.94,1,.42.42,0,0,0-.27.54.44.44,0,0,0,.41.3.31.31,0,0,0,.13,0,28,28,0,0,1,4.79-.94,22.3,22.3,0,0,0,6.34-1.51A.44.44,0,0,0,272.28,134.78Z" style="fill:#6DB5D6"></path><path d="M271.23,151.65c-1.08-.36-2.47-.72-3.94-1.09s-3.23-.82-4.4-1.24a.44.44,0,0,0-.55.27.43.43,0,0,0,.26.55c1.21.43,2.87.85,4.48,1.26s2.83.72,3.88,1.07l.13,0a.44.44,0,0,0,.41-.3A.42.42,0,0,0,271.23,151.65Z" style="fill:#6DB5D6"></path><path d="M268.24,165.58a16,16,0,0,1-3.74-3.28,26.77,26.77,0,0,0-2.38-2.39.44.44,0,0,0-.61.05.42.42,0,0,0,.05.61,28,28,0,0,1,2.31,2.31,16.91,16.91,0,0,0,3.93,3.45.44.44,0,0,0,.6-.16A.43.43,0,0,0,268.24,165.58Z" style="fill:#6DB5D6"></path><path d="M224.73,119.37a.43.43,0,0,0-.61,0,.44.44,0,0,0,0,.61,35.41,35.41,0,0,1,5.83,6.63.41.41,0,0,0,.36.19.42.42,0,0,0,.24-.07.43.43,0,0,0,.12-.6A36.5,36.5,0,0,0,224.73,119.37Z" style="fill:#6DB5D6"></path><path d="M225.23,136.27a35.9,35.9,0,0,1-3.83-1.4c-2.39-1-4.86-2-7.08-2.05a.42.42,0,0,0-.44.41.44.44,0,0,0,.42.45c2.06.07,4.45,1,6.77,2A36.08,36.08,0,0,0,225,137.1l.11,0a.44.44,0,0,0,.42-.32A.43.43,0,0,0,225.23,136.27Z" style="fill:#6DB5D6"></path><path d="M221.92,148.59h0a.44.44,0,0,0,.44-.43.43.43,0,0,0-.45-.43,7,7,0,0,0-3.13,1,7.82,7.82,0,0,1-3.42.63,8.33,8.33,0,0,0-3.78.72.43.43,0,0,0,.19.82.49.49,0,0,0,.2-.05,7.47,7.47,0,0,1,3.41-.63,8.4,8.4,0,0,0,3.79-.72A6.27,6.27,0,0,1,221.92,148.59Z" style="fill:#6DB5D6"></path><path d="M223.67,160.4l-.47.19c-2.41,1-4.91,2-6.67,4a.44.44,0,0,0,.05.61.42.42,0,0,0,.28.1.41.41,0,0,0,.32-.15c1.63-1.88,3.92-2.8,6.35-3.77l.46-.19a.43.43,0,1,0-.32-.8Z" style="fill:#6DB5D6"></path><path d="M243.39,113.68a.41.41,0,0,0-.47.38,93.31,93.31,0,0,0-.35,10.44.43.43,0,0,0,.43.42h0a.44.44,0,0,0,.42-.45,93.57,93.57,0,0,1,.34-10.32A.42.42,0,0,0,243.39,113.68Z" style="fill:#6DB5D6"></path><g style="opacity:0.5"><path d="M262.19,119.05a.43.43,0,0,0-.7-.51,17.09,17.09,0,0,1-2.13,2.07,17.31,17.31,0,0,0-2.27,2.2,9.26,9.26,0,0,0-1.84,3.52.43.43,0,0,0,.34.51h.08a.43.43,0,0,0,.42-.34,8.66,8.66,0,0,1,1.7-3.18,17.09,17.09,0,0,1,2.13-2.07A17.31,17.31,0,0,0,262.19,119.05Z" style="fill:#fff"></path><path d="M272.28,134.78a.44.44,0,0,0-.58-.2,21.34,21.34,0,0,1-6.08,1.44,27.18,27.18,0,0,0-4.94,1,.42.42,0,0,0-.27.54.44.44,0,0,0,.41.3.31.31,0,0,0,.13,0,28,28,0,0,1,4.79-.94,22.3,22.3,0,0,0,6.34-1.51A.44.44,0,0,0,272.28,134.78Z" style="fill:#fff"></path><path d="M271.23,151.65c-1.08-.36-2.47-.72-3.94-1.09s-3.23-.82-4.4-1.24a.44.44,0,0,0-.55.27.43.43,0,0,0,.26.55c1.21.43,2.87.85,4.48,1.26s2.83.72,3.88,1.07l.13,0a.44.44,0,0,0,.41-.3A.42.42,0,0,0,271.23,151.65Z" style="fill:#fff"></path><path d="M268.24,165.58a16,16,0,0,1-3.74-3.28,26.77,26.77,0,0,0-2.38-2.39.44.44,0,0,0-.61.05.42.42,0,0,0,.05.61,28,28,0,0,1,2.31,2.31,16.91,16.91,0,0,0,3.93,3.45.44.44,0,0,0,.6-.16A.43.43,0,0,0,268.24,165.58Z" style="fill:#fff"></path><path d="M224.73,119.37a.43.43,0,0,0-.61,0,.44.44,0,0,0,0,.61,35.41,35.41,0,0,1,5.83,6.63.41.41,0,0,0,.36.19.42.42,0,0,0,.24-.07.43.43,0,0,0,.12-.6A36.5,36.5,0,0,0,224.73,119.37Z" style="fill:#fff"></path><path d="M225.23,136.27a35.9,35.9,0,0,1-3.83-1.4c-2.39-1-4.86-2-7.08-2.05a.42.42,0,0,0-.44.41.44.44,0,0,0,.42.45c2.06.07,4.45,1,6.77,2A36.08,36.08,0,0,0,225,137.1l.11,0a.44.44,0,0,0,.42-.32A.43.43,0,0,0,225.23,136.27Z" style="fill:#fff"></path><path d="M221.92,148.59h0a.44.44,0,0,0,.44-.43.43.43,0,0,0-.45-.43,7,7,0,0,0-3.13,1,7.82,7.82,0,0,1-3.42.63,8.33,8.33,0,0,0-3.78.72.43.43,0,0,0,.19.82.49.49,0,0,0,.2-.05,7.47,7.47,0,0,1,3.41-.63,8.4,8.4,0,0,0,3.79-.72A6.27,6.27,0,0,1,221.92,148.59Z" style="fill:#fff"></path><path d="M223.67,160.4l-.47.19c-2.41,1-4.91,2-6.67,4a.44.44,0,0,0,.05.61.42.42,0,0,0,.28.1.41.41,0,0,0,.32-.15c1.63-1.88,3.92-2.8,6.35-3.77l.46-.19a.43.43,0,1,0-.32-.8Z" style="fill:#fff"></path><path d="M243.39,113.68a.41.41,0,0,0-.47.38,93.31,93.31,0,0,0-.35,10.44.43.43,0,0,0,.43.42h0a.44.44,0,0,0,.42-.45,93.57,93.57,0,0,1,.34-10.32A.42.42,0,0,0,243.39,113.68Z" style="fill:#fff"></path></g><path d="M269.56,167.19V413.68H216V410.3h7.94a1.5,1.5,0,0,0,0-3H216v-2.44h7.94a1.5,1.5,0,0,0,0-3H216v-2.43h7.94a1.5,1.5,0,0,0,0-3H216V394h7.94a1.5,1.5,0,1,0,0-3H216V167.19a6.42,6.42,0,0,1,6.42-6.42h40.72A6.42,6.42,0,0,1,269.56,167.19Z" style="fill:#263238"></path><path d="M269.56,167.19V413.68H216V410.3h7.94a1.5,1.5,0,0,0,0-3H216v-2.44h7.94a1.5,1.5,0,0,0,0-3H216v-2.43h7.94a1.5,1.5,0,0,0,0-3H216V394h7.94a1.5,1.5,0,1,0,0-3H216V167.19a6.42,6.42,0,0,1,6.42-6.42h40.72A6.42,6.42,0,0,1,269.56,167.19Z" style="fill:#fff;isolation:isolate;opacity:0.4"></path><path d="M269.45,169.36H239A10.7,10.7,0,0,0,228.32,180v41.19a1.5,1.5,0,0,0,3,0V180a7.7,7.7,0,0,1,7.69-7.68h30.44a1.5,1.5,0,0,0,0-3Z" style="fill:#263238"></path><path d="M216,193.46a2.21,2.21,0,0,1,2.2,2.2v25.57a1.5,1.5,0,0,0,3,0V195.66a5.2,5.2,0,0,0-5.2-5.2,1.5,1.5,0,0,0,0,3Z" style="fill:#263238"></path><path d="M216,327.51h2.87a6.29,6.29,0,0,0,6.28-6.28V233.1a1.5,1.5,0,0,0-3,0v88.13a3.28,3.28,0,0,1-3.28,3.28H216a1.5,1.5,0,0,0,0,3Z" style="fill:#263238"></path><path d="M264,389.4H242.81a9.47,9.47,0,0,1-9.47-9.46V352.77a12.47,12.47,0,0,0-12.46-12.46H216a1.5,1.5,0,1,0,0,3h4.87a9.47,9.47,0,0,1,9.46,9.46v27.17a12.48,12.48,0,0,0,12.47,12.46H264a1.5,1.5,0,0,0,0-3Z" style="fill:#263238"></path><g style="isolation:isolate;opacity:0.2"><path d="M269.45,169.36H239A10.7,10.7,0,0,0,228.32,180v41.19a1.5,1.5,0,0,0,3,0V180a7.7,7.7,0,0,1,7.69-7.68h30.44a1.5,1.5,0,0,0,0-3Z" style="fill:#fff"></path><path d="M216,193.46a2.21,2.21,0,0,1,2.2,2.2v25.57a1.5,1.5,0,0,0,3,0V195.66a5.2,5.2,0,0,0-5.2-5.2,1.5,1.5,0,0,0,0,3Z" style="fill:#fff"></path><path d="M216,327.51h2.87a6.29,6.29,0,0,0,6.28-6.28V233.1a1.5,1.5,0,0,0-3,0v88.13a3.28,3.28,0,0,1-3.28,3.28H216a1.5,1.5,0,0,0,0,3Z" style="fill:#fff"></path><path d="M264,389.4H242.81a9.47,9.47,0,0,1-9.47-9.46V352.77a12.47,12.47,0,0,0-12.46-12.46H216a1.5,1.5,0,1,0,0,3h4.87a9.47,9.47,0,0,1,9.46,9.46v27.17a12.48,12.48,0,0,0,12.47,12.46H264a1.5,1.5,0,0,0,0-3Z" style="fill:#fff"></path></g><path d="M224.8,251.53h-2.29c-4.53,0-8.22,4.08-8.22,9.09s3.69,9.09,8.22,9.09h2.29c4.54,0,8.23-4.08,8.23-9.09S229.34,251.53,224.8,251.53Z" style="fill:#6DB5D6"></path><path d="M222.51,251.53c-4.53,0-8.22,4.08-8.22,9.09s3.69,9.09,8.22,9.09,8.23-4.08,8.23-9.09S227.05,251.53,222.51,251.53Z" style="fill:#6DB5D6"></path><ellipse cx="222.51" cy="260.62" rx="7.25" ry="8.01" style="fill:#fff"></ellipse><g style="opacity:0.2"><path d="M222.51,269.71c-4.53,0-8.22-4.08-8.22-9.09s3.69-9.09,8.22-9.09,8.23,4.08,8.23,9.09S227.05,269.71,222.51,269.71Zm0-17.1c-4,0-7.25,3.59-7.25,8s3.26,8,7.25,8,7.26-3.59,7.26-8S226.51,252.61,222.51,252.61Z"></path></g><path d="M222.66,261.13a.48.48,0,0,1-.26-.07.51.51,0,0,1-.18-.7l3.27-5.43a.51.51,0,0,1,.87.53l-3.26,5.43A.54.54,0,0,1,222.66,261.13Z" style="fill:#263238"></path><path d="M223.77,260.62a1.12,1.12,0,1,1-1.11-1.23A1.18,1.18,0,0,1,223.77,260.62Z" style="fill:#263238"></path><path d="M223.09,268.61l-.58,0c-4,0-7.25-3.6-7.25-8s3.25-8,7.25-8l.58,0c-3.74.31-6.69,3.77-6.69,8S219.35,268.28,223.09,268.61Z" style="opacity:0.2"></path><path d="M224.8,273.54h-2.29c-4.53,0-8.22,4.08-8.22,9.09s3.69,9.09,8.22,9.09h2.29c4.54,0,8.23-4.07,8.23-9.09S229.34,273.54,224.8,273.54Z" style="fill:#6DB5D6"></path><path d="M222.51,273.54c-4.53,0-8.22,4.08-8.22,9.09s3.69,9.09,8.22,9.09,8.23-4.07,8.23-9.09S227.05,273.54,222.51,273.54Z" style="fill:#6DB5D6"></path><ellipse cx="222.51" cy="282.63" rx="7.25" ry="8.01" style="fill:#fff"></ellipse><g style="opacity:0.2"><path d="M222.51,291.72c-4.53,0-8.22-4.07-8.22-9.09s3.69-9.09,8.22-9.09,8.23,4.08,8.23,9.09S227.05,291.72,222.51,291.72Zm0-17.1c-4,0-7.25,3.6-7.25,8s3.26,8,7.25,8,7.26-3.6,7.26-8S226.51,274.62,222.51,274.62Z"></path></g><path d="M225.93,287.37a.51.51,0,0,1-.41-.2L222.26,283a.5.5,0,0,1,.09-.72.52.52,0,0,1,.72.09l3.26,4.22a.52.52,0,0,1-.09.72A.51.51,0,0,1,225.93,287.37Z" style="fill:#263238"></path><path d="M223.77,282.63a1.11,1.11,0,1,1-1.11-1.22A1.18,1.18,0,0,1,223.77,282.63Z" style="fill:#263238"></path><path d="M223.09,290.62a5.63,5.63,0,0,1-.58,0c-4,0-7.25-3.6-7.25-8s3.25-8,7.25-8l.58,0c-3.74.32-6.69,3.78-6.69,8S219.35,290.3,223.09,290.62Z" style="opacity:0.2"></path><path d="M224.8,295.56h-2.29c-4.53,0-8.22,4.08-8.22,9.09s3.69,9.09,8.22,9.09h2.29c4.54,0,8.23-4.08,8.23-9.09S229.34,295.56,224.8,295.56Z" style="fill:#6DB5D6"></path><path d="M222.51,295.56c-4.53,0-8.22,4.08-8.22,9.09s3.69,9.09,8.22,9.09,8.23-4.08,8.23-9.09S227.05,295.56,222.51,295.56Z" style="fill:#6DB5D6"></path><ellipse cx="222.51" cy="304.65" rx="7.25" ry="8.01" style="fill:#fff"></ellipse><g style="opacity:0.2"><path d="M222.51,313.74c-4.53,0-8.22-4.08-8.22-9.09s3.69-9.09,8.22-9.09,8.23,4.08,8.23,9.09S227.05,313.74,222.51,313.74Zm0-17.1c-4,0-7.25,3.59-7.25,8s3.26,8,7.25,8,7.26-3.59,7.26-8S226.51,296.64,222.51,296.64Z"></path></g><path d="M222.66,305.16a.56.56,0,0,1-.32-.11l-4.42-3.53a.51.51,0,0,1,.64-.8l4.42,3.53a.51.51,0,0,1,.08.72A.53.53,0,0,1,222.66,305.16Z" style="fill:#263238"></path><path d="M223.77,304.65a1.12,1.12,0,1,1-1.11-1.23A1.17,1.17,0,0,1,223.77,304.65Z" style="fill:#263238"></path><path d="M223.09,312.64l-.58,0c-4,0-7.25-3.59-7.25-8s3.25-8,7.25-8a5.63,5.63,0,0,1,.58,0c-3.74.31-6.69,3.77-6.69,8S219.35,312.31,223.09,312.64Z" style="opacity:0.2"></path><rect x="211.18" y="217.68" width="29.5" height="20.2" rx="2.74" style="fill:#6DB5D6"></rect><rect x="211.18" y="217.68" width="23.89" height="20.2" rx="2.74" style="fill:#fff;opacity:0.2"></rect><path d="M249.64,229.28a1.5,1.5,0,0,0,0-3H239a1.5,1.5,0,0,0,0,3Z" style="fill:#263238"></path><path d="M249.64,229.28a1.5,1.5,0,0,0,0-3H239a1.5,1.5,0,0,0,0,3Z" style="fill:#fff;opacity:0.2"></path><path d="M269.56,173.25V413.68H242.68V204.94A32.12,32.12,0,0,1,269.56,173.25Z" style="opacity:0.1"></path><polygon points="311.47 105.57 317.7 158.92 305.24 158.92 311.47 105.57" style="fill:#263238"></polygon><path d="M306.08,111a5.39,5.39,0,1,0,5.39-5.39A5.39,5.39,0,0,0,306.08,111Z" style="fill:#6DB5D6"></path><path d="M306.53,121.57h9.88a1.5,1.5,0,0,0,0-3h-9.88a1.5,1.5,0,0,0,0,3Z" style="fill:#6DB5D6"></path><path d="M320.75,147.33H302.19a1.5,1.5,0,0,0,0,3h18.56a1.5,1.5,0,0,0,0-3Z" style="fill:#6DB5D6"></path><path d="M304.41,135.66h14.12a1.5,1.5,0,0,0,0-3H304.41a1.5,1.5,0,0,0,0,3Z" style="fill:#6DB5D6"></path><path d="M305.54,128.17H317.7a1.5,1.5,0,1,0,0-3H305.54a1.5,1.5,0,0,0,0,3Z" style="fill:#6DB5D6"></path><path d="M303.37,142.55h16.2a1.5,1.5,0,0,0,0-3h-16.2a1.5,1.5,0,0,0,0,3Z" style="fill:#6DB5D6"></path><g style="isolation:isolate;opacity:0.6000000000000001"><path d="M306.53,121.57h9.88a1.5,1.5,0,0,0,0-3h-9.88a1.5,1.5,0,0,0,0,3Z" style="fill:#fff"></path><path d="M320.75,147.33H302.19a1.5,1.5,0,0,0,0,3h18.56a1.5,1.5,0,0,0,0-3Z" style="fill:#fff"></path><path d="M304.41,135.66h14.12a1.5,1.5,0,0,0,0-3H304.41a1.5,1.5,0,0,0,0,3Z" style="fill:#fff"></path><path d="M305.54,128.17H317.7a1.5,1.5,0,1,0,0-3H305.54a1.5,1.5,0,0,0,0,3Z" style="fill:#fff"></path><path d="M303.37,142.55h16.2a1.5,1.5,0,0,0,0-3h-16.2a1.5,1.5,0,0,0,0,3Z" style="fill:#fff"></path></g><path d="M351.2,205.87H384a6.55,6.55,0,0,1,6.55,6.55V333.26a6.55,6.55,0,0,1-6.55,6.55H351.2a0,0,0,0,1,0,0V205.87A0,0,0,0,1,351.2,205.87Z" style="fill:#263238"></path><path d="M390.59,212.42V333.26a6.55,6.55,0,0,1-6.55,6.55H351.19V205.87H384A6.55,6.55,0,0,1,390.59,212.42Z" style="fill:#fff;opacity:0.2"></path><path d="M380.59,221.62V333.26a6.55,6.55,0,0,1-6.55,6.55H351.19V205.87h13.65A15.75,15.75,0,0,1,380.59,221.62Z" style="opacity:0.2"></path><path d="M362.49,413.68h32.44v-56a16.22,16.22,0,0,0-16.22-16.22h0a16.22,16.22,0,0,0-16.22,16.22Z" style="fill:#6DB5D6"></path><path d="M394.92,357.7v56H362.48v-56a16.22,16.22,0,0,1,32.44,0Z" style="fill:#fff;isolation:isolate;opacity:0.2"></path><path d="M384.92,357.7v56H362.48v-56a16.21,16.21,0,0,1,11.22-15.43A16.22,16.22,0,0,1,384.92,357.7Z" style="opacity:0.1"></path><path d="M250.45,160h124.2a0,0,0,0,1,0,0V351.58a62.1,62.1,0,0,1-62.1,62.1h0a62.1,62.1,0,0,1-62.1-62.1V160a0,0,0,0,1,0,0Z" transform="translate(625.1 573.71) rotate(180)" style="fill:#263238"></path><path d="M250.45,160h124.2a0,0,0,0,1,0,0V351.58a62.1,62.1,0,0,1-62.1,62.1h0a62.1,62.1,0,0,1-62.1-62.1V160a0,0,0,0,1,0,0Z" transform="translate(625.1 573.71) rotate(180)" style="fill:#fff;isolation:isolate;opacity:0.6000000000000001"></path><path d="M374.65,222.12V413.68h-22V222.12A62.12,62.12,0,0,0,301.54,161a62.17,62.17,0,0,1,73.11,61.12Z" style="opacity:0.1"></path><path d="M285.11,396.34a37.21,37.21,0,0,0,37.17-37.17V217a37.18,37.18,0,0,0-74.35,0V359.17A37.22,37.22,0,0,0,285.11,396.34Z" style="fill:#6DB5D6"></path><path d="M285.11,396.34a37.21,37.21,0,0,0,37.17-37.17V217a37.18,37.18,0,0,0-74.35,0V359.17A37.22,37.22,0,0,0,285.11,396.34Z" style="fill:#fff;opacity:0.2"></path><rect x="251.93" y="184.86" width="64.35" height="206.48" rx="32.18" transform="translate(568.21 576.2) rotate(180)" style="fill:#fff;isolation:isolate;opacity:0.4"></rect><path d="M280.68,259.71c12.27,0,22.25-11.25,22.25-25.07s-10-25.06-22.25-25.06-22.26,11.24-22.26,25.06S268.41,259.71,280.68,259.71Z" style="fill:#6DB5D6"></path><path d="M280.68,259.71c12.27,0,22.25-11.25,22.25-25.07s-10-25.06-22.25-25.06-22.26,11.24-22.26,25.06S268.41,259.71,280.68,259.71Z" style="fill:#fff;opacity:0.2"></path><path d="M284.48,305.85h-3.29c-6.23,0-11.27-5.46-11.27-12.2s5-12.2,11.27-12.2h3.29c6.22,0,11.26,5.46,11.26,12.2S290.7,305.85,284.48,305.85Z" style="fill:#263238"></path><path d="M292.45,293.65c0-6.74-5-12.2-11.26-12.2s-11.27,5.46-11.27,12.2,5,12.2,11.27,12.2S292.45,300.39,292.45,293.65Z" style="fill:#fff;opacity:0.4"></path><path d="M284.48,305.85h-3.29c-6.23,0-11.27-5.46-11.27-12.2s5-12.2,11.27-12.2h3.29c6.22,0,11.26,5.46,11.26,12.2S290.7,305.85,284.48,305.85Z" style="fill:#fff;opacity:0.2"></path><path d="M256,294.29c0,13.46,9.6,24.36,21.44,24.36s21.44-10.9,21.44-24.36-9.6-24.36-21.44-24.36S256,280.84,256,294.29Zm29-3.57,6.3-9a23.89,23.89,0,0,1,3.52,12h-8.69A5.92,5.92,0,0,0,285,290.72Zm9.81,4.52a23.87,23.87,0,0,1-3.51,11.65l-6.3-9a5.82,5.82,0,0,0,1.1-2.62ZM277,296.59,263.7,307a23.78,23.78,0,0,1-3.57-11.77h16.51A6,6,0,0,0,277,296.59Zm-16.9-2.94a23.86,23.86,0,0,1,3.59-12.07L277,292a6,6,0,0,0-.4,1.66Zm16.59-20.5,2.79,16.09a4.86,4.86,0,0,0-1.56,1.23L264.7,280.12C267.74,276.07,272,273.42,276.7,273.15ZM290.19,280l-6.58,9.43a4.26,4.26,0,0,0-2.16-.64l-2.7-15.63A16.57,16.57,0,0,1,290.19,280ZM278.8,315.4l2.67-15.63a4.31,4.31,0,0,0,2.14-.63l6.58,9.42A16.56,16.56,0,0,1,278.8,315.4Zm-14.1-6.94,13.23-10.34a4.79,4.79,0,0,0,1.57,1.23l-2.75,16.08C272,315.18,267.75,312.53,264.7,308.46Z" style="fill:#6DB5D6"></path><path d="M299.93,234.64a24.25,24.25,0,0,1-.77,6.14,19.54,19.54,0,0,1-.86,2.72,22.2,22.2,0,0,1-2.42,4.67,19.06,19.06,0,0,1-1.2,1.6,16.37,16.37,0,0,1-1.37,1.5,17.78,17.78,0,0,1-12.64,5.43,17.13,17.13,0,0,1-2.88-.24c-9.27-1.6-16.37-10.76-16.37-21.82,0-12.19,8.62-22.07,19.25-22.07a17.68,17.68,0,0,1,12,4.79,20,20,0,0,1,3,3.45A22.24,22.24,0,0,1,298,225a22.66,22.66,0,0,1,1.07,3.1c.06.21.11.4.15.61h0c.15.56.26,1.12.36,1.7h0A25.15,25.15,0,0,1,299.93,234.64Z" style="opacity:0.30000000000000004"></path><path d="M298.3,243.5a22.2,22.2,0,0,1-2.42,4.67,19.06,19.06,0,0,1-1.2,1.6,12.84,12.84,0,0,1-3.16.61c-2.35.17-3.17-1-3.21-2.12a2.7,2.7,0,0,1,.23-1.14c3.24-1.1,3.58-3.29,3.06-5.56h0c0-.14-.06-.27-.1-.4s-.16-.54-.25-.81l-.12-.34,0-.06,3.8-3.93,2.12-2.2.35-.35.14-.15a3,3,0,0,0,0,.31,31.77,31.77,0,0,0,.17,7.36A12.73,12.73,0,0,0,298.3,243.5Z" style="fill:#b55b52"></path><path d="M294.92,236l-3.8,3.92a11.51,11.51,0,0,1,.56,2c1.55-.37,3.53-2.29,3.52-3.95A5.6,5.6,0,0,0,294.92,236Z" style="opacity:0.2"></path><path d="M283,224.41c-.56,2-.1,5.94,2.58,4.56S283.91,221,283,224.41Z" style="fill:#263238"></path><path d="M297,226.61c.46,5,1,7.88-1.14,10.78-3.18,4.35-9.65,3-11.59-1.8-1.74-4.29-2.19-11.73,2.36-14.39A6.91,6.91,0,0,1,297,226.61Z" style="fill:#b55b52"></path><path d="M299.07,228.11c-.05.07-.12.14-.19.22a9.55,9.55,0,0,1-1.56,1.39,6.24,6.24,0,0,1-.68.46,4.22,4.22,0,0,1-1.06-1.17,9.23,9.23,0,0,1-1.18-3.6,12.82,12.82,0,0,1-.11-1.77l-.34.14.33-2.15.15-1,1.24.19A22.24,22.24,0,0,1,298,225,22.66,22.66,0,0,1,299.07,228.11Z" style="fill:#263238"></path><path d="M299.58,230.43h0a4.72,4.72,0,0,1-1.91,3.07.75.75,0,0,1-.17.1h0l-.15.08a1.52,1.52,0,0,1-.32.11c-1.09.3-2-.68-2.07-2a5.26,5.26,0,0,1,.62-2.79,2.33,2.33,0,0,1,1.49-1.17l.08,0a2,2,0,0,1,1.73.51,1.83,1.83,0,0,1,.34.39h0C299.37,229.29,299.48,229.85,299.58,230.43Z" style="fill:#b55b52"></path><path d="M289.73,229.06c.07.41-.1.76-.36.8s-.53-.26-.59-.66.1-.76.37-.8S289.67,228.66,289.73,229.06Z" style="fill:#263238"></path><path d="M285.17,229.71c.06.41-.1.76-.36.8s-.53-.26-.59-.66.1-.76.36-.8S285.11,229.31,285.17,229.71Z" style="fill:#263238"></path><path d="M286.65,229.71a14.12,14.12,0,0,1-1.45,3.6,2.41,2.41,0,0,0,2,.05Z" style="fill:#a02724"></path><path d="M291.23,233.18l.53.06a.12.12,0,0,1,.1.14.12.12,0,0,1-.14.09,3.22,3.22,0,0,0-2.8.8.12.12,0,0,1-.17-.17A3.32,3.32,0,0,1,291.23,233.18Z" style="fill:#263238"></path><path d="M290.92,227.39a.22.22,0,0,1-.24-.06,1.92,1.92,0,0,0-1.64-.57.23.23,0,0,1-.28-.18.24.24,0,0,1,.18-.29,2.4,2.4,0,0,1,2.08.7.25.25,0,0,1,0,.34A.21.21,0,0,1,290.92,227.39Z" style="fill:#263238"></path><path d="M283,228.43h-.14a.24.24,0,0,1-.16-.3,2.36,2.36,0,0,1,1.5-1.58.25.25,0,0,1,.3.17.24.24,0,0,1-.17.29,1.84,1.84,0,0,0-1.17,1.26A.25.25,0,0,1,283,228.43Z" style="fill:#263238"></path><path d="M298,225h-2.12a2.36,2.36,0,0,1-.36.2,2.27,2.27,0,0,1-1.12.2,2.12,2.12,0,0,1-1-.34c-1.31-.82-1.33-4.78-5.46-3.2a2.3,2.3,0,0,0-2.43.59,3.43,3.43,0,0,0-.68,1.46,17.45,17.45,0,0,1-.85,2.72,1.3,1.3,0,0,1-.78.75l-.15,0a.2.2,0,0,1-.13,0,1.18,1.18,0,0,1-.42-.09c-2.08-.85-1.64-1.47-1.64-1.47s.56.44.95.18a2,2,0,0,1-.35-2.31s.46.67.82.59a9.16,9.16,0,0,1,1.16-5.36c1.57-3,9.14-1.48,9.14-1.48l.1-.11a20,20,0,0,1,3,3.45A22.24,22.24,0,0,1,298,225Z" style="fill:#263238"></path><path d="M299.16,240.78a19.54,19.54,0,0,1-.86,2.72,22.2,22.2,0,0,1-2.42,4.67,19.06,19.06,0,0,1-1.2,1.6,16.37,16.37,0,0,1-1.37,1.5,17.78,17.78,0,0,1-12.64,5.43,17.13,17.13,0,0,1-2.88-.24,12.73,12.73,0,0,1,4.5-7,13.44,13.44,0,0,1,2.81-1.8l.1-5.8s2.84-.07,6.4-.3l1.15-.08c1.6-.13,3.3-.28,4.92-.49Z" style="fill:#fff"></path><path d="M292.27,229v.11a1.31,1.31,0,0,1-1.21,1.3h-.14l-7.45.59a1.32,1.32,0,0,1-1.41-1.21v-.11a1.32,1.32,0,0,1,1.2-1.3l7.6-.6A1.31,1.31,0,0,1,292.27,229Z" style="fill:#6DB5D6"></path><path d="M291.29,229.46v.09a1.31,1.31,0,0,1-.37.91l-7.45.59a1.32,1.32,0,0,1-1.41-1.21v-.11a1.3,1.3,0,0,1,.36-.89l7.45-.59A1.31,1.31,0,0,1,291.29,229.46Z" style="fill:#fff;isolation:isolate;opacity:0.6000000000000001"></path><path d="M290.34,229.91l-7.24.54a.53.53,0,0,1-.56-.49h0a.51.51,0,0,1,.48-.56l7.24-.54a.53.53,0,0,1,.56.48h0A.53.53,0,0,1,290.34,229.91Z" style="fill:#263238"></path><path d="M295.88,248.17a19.06,19.06,0,0,1-1.2,1.6,16.37,16.37,0,0,1-1.37,1.5c-3.6,1.1-7.75,1.24-11-1.82a13.44,13.44,0,0,1,2.81-1.8,19.15,19.15,0,0,0,3.21.61A31.72,31.72,0,0,0,295.88,248.17Z" style="opacity:0.2"></path><path d="M295.85,229.65a24.25,24.25,0,0,1-.77,6.14,19.54,19.54,0,0,1-.86,2.72,22.2,22.2,0,0,1-2.42,4.67,19.06,19.06,0,0,1-1.2,1.6,16.37,16.37,0,0,1-1.37,1.5,17.78,17.78,0,0,1-12.64,5.43,17.13,17.13,0,0,1-2.88-.24,18,18,0,0,1-9-4.44,24.23,24.23,0,0,1-3.32-12.39c0-12.19,8.62-22.07,19.25-22.07a17.64,17.64,0,0,1,11.83,4.66,20.88,20.88,0,0,1,1.42,2.79,22.66,22.66,0,0,1,1.07,3.1c.06.21.11.4.15.61h0c.15.56.26,1.12.36,1.7h0A25.15,25.15,0,0,1,295.85,229.65Z" style="fill:#fff;isolation:isolate;opacity:0.2"></path><path d="M282.74,233.2c-3.76,6.5-10.64,9.56-15.37,6.83s-5.53-10.22-1.77-16.73,10.63-9.56,15.37-6.83S286.49,226.69,282.74,233.2Z" style="fill:#fff;isolation:isolate;opacity:0.2"></path><path d="M286.39,239.2c-1,1.73-2.84,2.55-4.1,1.82s-1.47-2.72-.47-4.45,2.84-2.55,4.1-1.82S287.39,237.47,286.39,239.2Z" style="fill:#fff;isolation:isolate;opacity:0.2"></path><path d="M290,163.8h43l-1.88-6.21a5.27,5.27,0,0,0-5.05-3.76H296.91a5.27,5.27,0,0,0-5.05,3.76Z" style="fill:#6DB5D6"></path><path d="M379.14,336.49h-4a5.47,5.47,0,0,1-5.46-5.46v-5a1.5,1.5,0,0,1,3,0v5a2.46,2.46,0,0,0,2.46,2.46h4a1.5,1.5,0,0,1,0,3Z" style="fill:#263238"></path><g style="opacity:0.30000000000000004"><path d="M379.14,336.49h-4a5.47,5.47,0,0,1-5.46-5.46v-5a1.5,1.5,0,0,1,3,0v5a2.46,2.46,0,0,0,2.46,2.46h4a1.5,1.5,0,0,1,0,3Z" style="fill:#fff"></path></g><rect x="356.2" y="308.51" width="29.5" height="20.2" rx="2.74" transform="translate(741.9 637.22) rotate(180)" style="fill:#6DB5D6"></rect><rect x="361.81" y="308.51" width="23.89" height="20.2" rx="2.74" transform="translate(747.51 637.22) rotate(180)" style="fill:#fff;opacity:0.2"></rect><path d="M378.47,231.5h-40A14.49,14.49,0,0,1,324,217a38.58,38.58,0,0,0-38.53-38.53,1.5,1.5,0,0,1,0-3A41.58,41.58,0,0,1,327,217a11.49,11.49,0,0,0,11.48,11.48h40a1.5,1.5,0,0,1,0,3Z" style="fill:#263238"></path><path d="M285.11,415.18a1.5,1.5,0,0,1-1.5-1.5V400.83A3.43,3.43,0,0,1,287,397.4a37,37,0,0,0,37-37V250.09a13.28,13.28,0,0,1,13.26-13.26h41.18a1.5,1.5,0,0,1,0,3H337.29A10.27,10.27,0,0,0,327,250.09V360.4a40,40,0,0,1-40,40,.43.43,0,0,0-.43.43v12.85A1.5,1.5,0,0,1,285.11,415.18Z" style="fill:#263238"></path><path d="M368.78,260.58a1.5,1.5,0,0,1-1.5-1.5v-8.47a5.49,5.49,0,0,1,5.49-5.49h5.7a1.5,1.5,0,0,1,0,3h-5.7a2.5,2.5,0,0,0-2.49,2.49v8.47A1.5,1.5,0,0,1,368.78,260.58Z" style="fill:#263238"></path><path d="M346.69,347a1.5,1.5,0,0,1-1.5-1.5v-19.1a9.21,9.21,0,0,1,9.19-9.2h4.1a1.5,1.5,0,0,1,0,3h-4.1a6.2,6.2,0,0,0-6.19,6.2v19.1A1.5,1.5,0,0,1,346.69,347Z" style="fill:#263238"></path><path d="M377.91,396h-17.1a1.5,1.5,0,1,1,0-3h17.1a1.5,1.5,0,1,1,0,3Z" style="fill:#263238"></path><g style="isolation:isolate;opacity:0.30000000000000004"><path d="M378.47,231.5h-40A14.49,14.49,0,0,1,324,217a38.58,38.58,0,0,0-38.53-38.53,1.5,1.5,0,0,1,0-3A41.58,41.58,0,0,1,327,217a11.49,11.49,0,0,0,11.48,11.48h40a1.5,1.5,0,0,1,0,3Z" style="fill:#fff"></path><path d="M285.11,415.18a1.5,1.5,0,0,1-1.5-1.5V400.83A3.43,3.43,0,0,1,287,397.4a37,37,0,0,0,37-37V250.09a13.28,13.28,0,0,1,13.26-13.26h41.18a1.5,1.5,0,0,1,0,3H337.29A10.27,10.27,0,0,0,327,250.09V360.4a40,40,0,0,1-40,40,.43.43,0,0,0-.43.43v12.85A1.5,1.5,0,0,1,285.11,415.18Z" style="fill:#fff"></path><path d="M368.78,260.58a1.5,1.5,0,0,1-1.5-1.5v-8.47a5.49,5.49,0,0,1,5.49-5.49h5.7a1.5,1.5,0,0,1,0,3h-5.7a2.5,2.5,0,0,0-2.49,2.49v8.47A1.5,1.5,0,0,1,368.78,260.58Z" style="fill:#fff"></path><path d="M346.69,347a1.5,1.5,0,0,1-1.5-1.5v-19.1a9.21,9.21,0,0,1,9.19-9.2h4.1a1.5,1.5,0,0,1,0,3h-4.1a6.2,6.2,0,0,0-6.19,6.2v19.1A1.5,1.5,0,0,1,346.69,347Z" style="fill:#fff"></path><path d="M377.91,396h-17.1a1.5,1.5,0,1,1,0-3h17.1a1.5,1.5,0,1,1,0,3Z" style="fill:#fff"></path></g><path d="M330.47,413.68h32.44v-56a16.22,16.22,0,0,0-16.22-16.22h0a16.22,16.22,0,0,0-16.22,16.22Z" style="fill:#6DB5D6"></path><path d="M330.47,413.68h32.44v-56a16.22,16.22,0,0,0-16.22-16.22h0a16.22,16.22,0,0,0-16.22,16.22Z" style="fill:#fff;isolation:isolate;opacity:0.2"></path><path d="M362.9,357.7v56h-6v-56a16.21,16.21,0,0,0-13.22-15.94,16.41,16.41,0,0,1,3-.28A16.22,16.22,0,0,1,362.9,357.7Z" style="opacity:0.1"></path><path d="M400.4,417.72H210.74a6.07,6.07,0,0,1,6.07-6.07H394.34a6.06,6.06,0,0,1,6.06,6.07Z" style="fill:#6DB5D6"></path><path d="M290,163.8h43l-1.88-6.21a5.27,5.27,0,0,0-5.05-3.76H296.91a5.27,5.27,0,0,0-5.05,3.76Z" style="fill:#fff;isolation:isolate;opacity:0.2"></path><path d="M400.4,260.85v40.08a3.82,3.82,0,0,1-3.83,3.82H338.62a3.82,3.82,0,0,1-3.81-3.82V260.85a3.82,3.82,0,0,1,3.81-3.82h57.95A3.83,3.83,0,0,1,400.4,260.85Z" style="fill:#6DB5D6"></path><path d="M400.4,260.85v40.08a3.82,3.82,0,0,1-3.83,3.82H347.11a3.82,3.82,0,0,1-3.81-3.82V260.85a3.82,3.82,0,0,1,3.81-3.82h49.46A3.83,3.83,0,0,1,400.4,260.85Z" style="fill:#fff;opacity:0.2"></path><path d="M392.33,299.66H352.76a4.26,4.26,0,0,1-4.24-4.24h0a4.26,4.26,0,0,1,4.24-4.24h39.57a4.26,4.26,0,0,1,4.24,4.24h0A4.26,4.26,0,0,1,392.33,299.66Z" style="opacity:0.2"></path><path d="M392.33,290H352.76a4.26,4.26,0,0,1-4.24-4.24h0a4.26,4.26,0,0,1,4.24-4.24h39.57a4.26,4.26,0,0,1,4.24,4.24h0A4.26,4.26,0,0,1,392.33,290Z" style="opacity:0.2"></path><path d="M392.33,280.32H352.76a4.26,4.26,0,0,1-4.24-4.25h0a4.26,4.26,0,0,1,4.24-4.24h39.57a4.26,4.26,0,0,1,4.24,4.24h0A4.26,4.26,0,0,1,392.33,280.32Z" style="opacity:0.2"></path><rect x="348.52" y="262.16" width="48.04" height="8.48" rx="4.24" style="opacity:0.2"></rect><path d="M362.05,263.11h-3.57v6.59h3.57a5.53,5.53,0,0,0,0-6.59Z" style="fill:#fff"></path><path d="M358.48,263.11v6.59a5.49,5.49,0,0,0,0-6.59Z" style="opacity:0.2"></path><path d="M367.68,263.11h-3.56v6.59h3.56a5.49,5.49,0,0,0,0-6.59Z" style="fill:#fff"></path><path d="M364.12,263.11v6.59a5.53,5.53,0,0,0,0-6.59Z" style="opacity:0.2"></path><path d="M373.32,263.11h-3.56v6.59h3.56a5.49,5.49,0,0,0,0-6.59Z" style="fill:#fff"></path><path d="M369.76,263.11v6.59a5.53,5.53,0,0,0,0-6.59Z" style="opacity:0.2"></path><path d="M379,263.11H375.4v6.59H379a5.49,5.49,0,0,0,0-6.59Z" style="fill:#fff"></path><path d="M375.4,263.11v6.59a5.53,5.53,0,0,0,0-6.59Z" style="opacity:0.2"></path><path d="M362.05,272.78h-3.57v6.59h3.57a5.53,5.53,0,0,0,0-6.59Z" style="fill:#fff"></path><path d="M358.48,272.78v6.59a5.49,5.49,0,0,0,0-6.59Z" style="opacity:0.2"></path><path d="M367.68,272.78h-3.56v6.59h3.56a5.49,5.49,0,0,0,0-6.59Z" style="fill:#fff"></path><path d="M364.12,272.78v6.59a5.53,5.53,0,0,0,0-6.59Z" style="opacity:0.2"></path><path d="M362.05,282.45h-3.57V289h3.57a5.53,5.53,0,0,0,0-6.59Z" style="fill:#fff"></path><path d="M358.48,282.45V289a5.49,5.49,0,0,0,0-6.59Z" style="opacity:0.2"></path><path d="M367.68,282.45h-3.56V289h3.56a5.49,5.49,0,0,0,0-6.59Z" style="fill:#fff"></path><path d="M364.12,282.45V289a5.53,5.53,0,0,0,0-6.59Z" style="opacity:0.2"></path><path d="M362.05,292.12h-3.57v6.6h3.57a5.54,5.54,0,0,0,0-6.6Z" style="fill:#fff"></path><g style="opacity:0.2"><path d="M358.48,292.12v6.6a5.5,5.5,0,0,0,0-6.6Z"></path></g><path d="M367.68,292.12h-3.56v6.6h3.56a5.5,5.5,0,0,0,0-6.6Z" style="fill:#fff"></path><g style="opacity:0.2"><path d="M364.12,292.12v6.6a5.54,5.54,0,0,0,0-6.6Z"></path></g><path d="M374.74,292.12h-3.57v6.6h3.57a5.54,5.54,0,0,0,0-6.6Z" style="fill:#fff"></path><g style="opacity:0.2"><path d="M371.17,292.12v6.6a5.5,5.5,0,0,0,0-6.6Z"></path></g><path d="M380.38,292.12h-3.57v6.6h3.57a5.54,5.54,0,0,0,0-6.6Z" style="fill:#fff"></path><g style="opacity:0.2"><path d="M376.81,292.12v6.6a5.5,5.5,0,0,0,0-6.6Z"></path></g><path d="M387.43,292.12h-3.57v6.6h3.57a5.54,5.54,0,0,0,0-6.6Z" style="fill:#fff"></path><g style="opacity:0.2"><path d="M383.86,292.12v6.6a5.5,5.5,0,0,0,0-6.6Z"></path></g><path d="M393.07,292.12H389.5v6.6h3.57a5.54,5.54,0,0,0,0-6.6Z" style="fill:#fff"></path><g style="opacity:0.2"><path d="M389.5,292.12v6.6a5.5,5.5,0,0,0,0-6.6Z"></path></g><path d="M369.45,294.76a.36.36,0,0,1,.37-.38.37.37,0,0,1,.37.38.37.37,0,0,1-.37.38A.37.37,0,0,1,369.45,294.76Zm0,1.73a.36.36,0,0,1,.37-.38.37.37,0,0,1,.37.38.37.37,0,0,1-.37.38A.37.37,0,0,1,369.45,296.49Z" style="fill:#263238"></path><path d="M382.18,294.76a.36.36,0,0,1,.37-.38.37.37,0,0,1,.37.38.37.37,0,0,1-.37.38A.37.37,0,0,1,382.18,294.76Zm0,1.73a.36.36,0,0,1,.37-.38.37.37,0,0,1,.37.38.37.37,0,0,1-.37.38A.37.37,0,0,1,382.18,296.49Z" style="fill:#263238"></path><path d="M353.24,266.87V268h-.59v-1.12l-1.25-2.07H352l.93,1.55.94-1.55h.59Z" style="fill:#263238"></path><path d="M354.12,277.67v-2.11l-1.05,1.74h-.26l-1.05-1.72v2.09h-.56v-3.19h.48l1.27,2.11,1.24-2.11h.49v3.19Z" style="fill:#263238"></path><path d="M351.49,284.15h1.39a1.6,1.6,0,1,1,0,3.19h-1.39Zm1.36,2.69a1.09,1.09,0,1,0,0-2.18h-.77v2.18Z" style="fill:#263238"></path><path d="M354.36,293.83V297h-.6v-1.36h-1.64V297h-.59v-3.18h.59v1.31h1.64v-1.31Z" style="fill:#263238"></path><text transform="translate(359.66 297.01)" style="font-size:4.548789978027344px;fill:#263238;font-family:Montserrat-Regular, Montserrat">0</text><text transform="translate(365.43 297.01)" style="font-size:4.548789978027344px;fill:#263238;font-family:Montserrat-Regular, Montserrat">6</text><text transform="translate(359.69 287.34)" style="font-size:4.548789978027344px;fill:#263238;font-family:Montserrat-Regular, Montserrat">2</text><text transform="translate(359.66 277.67)" style="font-size:4.548789978027344px;fill:#263238;font-family:Montserrat-Regular, Montserrat">0</text><text transform="translate(359.69 268)" style="font-size:4.548789978027344px;fill:#263238;font-family:Montserrat-Regular, Montserrat">2</text><text transform="translate(365.42 268)" style="font-size:4.548789978027344px;fill:#263238;font-family:Montserrat-Regular, Montserrat">5</text><text transform="translate(371.12 268)" style="font-size:4.548789978027344px;fill:#263238;font-family:Montserrat-Regular, Montserrat">8</text><text transform="translate(376.98 268)" style="font-size:4.548789978027344px;fill:#263238;font-family:Montserrat-Regular, Montserrat">5</text><text transform="translate(365.47 277.67)" style="font-size:4.548789978027344px;fill:#263238;font-family:Montserrat-Regular, Montserrat">8</text><text transform="translate(365.4 287.34)" style="font-size:4.548789978027344px;fill:#263238;font-family:Montserrat-Regular, Montserrat">2</text><text transform="translate(372.66 297.01)" style="font-size:4.548789978027344px;fill:#263238;font-family:Montserrat-Regular, Montserrat">5</text><text transform="translate(378.31 297.02)" style="font-size:4.548789978027344px;fill:#263238;font-family:Montserrat-Regular, Montserrat">5</text><text transform="translate(385.48 297.01)" style="font-size:4.548789978027344px;fill:#263238;font-family:Montserrat-Regular, Montserrat">2</text><text transform="translate(391.46 297.01)" style="font-size:4.548789978027344px;fill:#263238;font-family:Montserrat-Regular, Montserrat">1</text></g></svg>
